adventprofmm-Bolditalic.ufo
<glyph name="quotedbl" format="1">
  <advance width="283"/>
  <unicode hex="0022"/>
  <outline>
    <contour>
      <point x="311.514" y="694" type="line"/>
      <point x="315.978" y="715"/>
      <point x="346.654" y="737"/>
      <point x="382.654" y="737"/>
      <point x="404.978" y="715"/>
      <point x="400.514" y="694" type="qcurve"/>
      <point x="364.771" y="587" type="line"/>
      <point x="301.771" y="587" type="line"/>
    </contour>
    <contour>
      <point x="175.514" y="694" type="line"/>
      <point x="179.978" y="715"/>
      <point x="211.654" y="737"/>
      <point x="247.654" y="737"/>
      <point x="269.978" y="715"/>
      <point x="265.514" y="694" type="qcurve"/>
      <point x="228.771" y="587" type="line"/>
      <point x="166.771" y="587" type="line"/>
    </contour>
  </outline>
</glyph>
<glyph name="numbersign" format="1">
  <advance width="617"/>
  <unicode hex="0023"/>
  <outline>
    <contour>
      <point x="515.178" y="269" type="line"/>
      <point x="639.178" y="269" type="line"/>
      <point x="617.284" y="166" type="line"/>
      <point x="469.284" y="166" type="line"/>
      <point x="395" y="0" type="line"/>
      <point x="282" y="0" type="line"/>
      <point x="355.284" y="166" type="line"/>
      <point x="237.284" y="166" type="line"/>
      <point x="164" y="0" type="line"/>
      <point x="58" y="0" type="line"/>
      <point x="133.284" y="166" type="line"/>
      <point x="68.2844" y="166" type="line"/>
      <point x="90.1777" y="269" type="line"/>
      <point x="179.178" y="269" type="line"/>
      <point x="218.67" y="356" type="line"/>
      <point x="108.67" y="356" type="line"/>
      <point x="132.689" y="469" type="line"/>
      <point x="269.689" y="469" type="line"/>
      <point x="371.364" y="698" type="line"/>
      <point x="475.364" y="698" type="line"/>
      <point x="373.689" y="469" type="line"/>
      <point x="491.689" y="469" type="line"/>
      <point x="594.364" y="698" type="line"/>
      <point x="709.364" y="698" type="line"/>
      <point x="606.689" y="469" type="line"/>
      <point x="681.689" y="469" type="line"/>
      <point x="657.67" y="356" type="line"/>
      <point x="553.67" y="356" type="line"/>
    </contour>
    <contour>
      <point x="402.178" y="269" type="line"/>
      <point x="441.67" y="356" type="line"/>
      <point x="322.67" y="356" type="line"/>
      <point x="283.178" y="269" type="line"/>
    </contour>
  </outline>
</glyph>
<glyph name="percent" format="1">
  <advance width="728"/>
  <unicode hex="0025"/>
  <outline>
    <contour>
      <point x="35" y="0" type="line"/>
      <point x="720.365" y="698" type="line"/>
      <point x="837.365" y="698" type="line"/>
      <point x="149" y="0" type="line"/>
    </contour>
    <contour>
      <point x="338.553" y="713" type="qcurve" smooth="yes"/>
      <point x="378.553" y="713"/>
      <point x="435.263" y="674"/>
      <point x="461.234" y="608"/>
      <point x="452.732" y="568" type="qcurve" smooth="yes"/>
      <point x="444.23" y="528"/>
      <point x="389.989" y="461"/>
      <point x="316.699" y="422"/>
      <point x="276.699" y="422" type="qcurve" smooth="yes"/>
      <point x="236.699" y="422"/>
      <point x="177.989" y="461"/>
      <point x="153.23" y="528"/>
      <point x="161.732" y="568" type="qcurve" smooth="yes"/>
      <point x="170.234" y="608"/>
      <point x="223.263" y="674"/>
      <point x="298.553" y="713"/>
    </contour>
    <contour>
      <point x="318.785" y="620" type="qcurve" smooth="yes"/>
      <point x="303.785" y="620"/>
      <point x="276.809" y="606"/>
      <point x="257.708" y="582"/>
      <point x="254.732" y="568" type="qcurve" smooth="yes"/>
      <point x="251.756" y="554"/>
      <point x="260.442" y="529"/>
      <point x="281.467" y="515"/>
      <point x="296.467" y="515" type="qcurve" smooth="yes"/>
      <point x="310.467" y="515"/>
      <point x="336.442" y="529"/>
      <point x="356.756" y="554"/>
      <point x="359.732" y="568" type="qcurve" smooth="yes"/>
      <point x="362.708" y="582"/>
      <point x="352.809" y="606"/>
      <point x="332.785" y="620"/>
    </contour>
    <contour>
      <point x="605.878" y="277" type="qcurve" smooth="yes"/>
      <point x="645.878" y="277"/>
      <point x="703.588" y="238"/>
      <point x="728.56" y="172"/>
      <point x="719.845" y="131" type="qcurve" smooth="yes"/>
      <point x="711.343" y="91"/>
      <point x="658.314" y="25"/>
      <point x="584.024" y="-14"/>
      <point x="544.024" y="-14" type="qcurve" smooth="yes"/>
      <point x="504.024" y="-14"/>
      <point x="445.314" y="25"/>
      <point x="420.343" y="91"/>
      <point x="428.845" y="131" type="qcurve" smooth="yes"/>
      <point x="437.56" y="172"/>
      <point x="490.588" y="238"/>
      <point x="565.878" y="277"/>
    </contour>
    <contour>
      <point x="586.11" y="184" type="qcurve" smooth="yes"/>
      <point x="572.11" y="184"/>
      <point x="544.922" y="169"/>
      <point x="525.821" y="145"/>
      <point x="522.845" y="131" type="qcurve" smooth="yes"/>
      <point x="519.869" y="117"/>
      <point x="528.768" y="93"/>
      <point x="549.792" y="79"/>
      <point x="563.792" y="79" type="qcurve" smooth="yes"/>
      <point x="577.792" y="79"/>
      <point x="603.768" y="93"/>
      <point x="622.869" y="117"/>
      <point x="625.845" y="131" type="qcurve" smooth="yes"/>
      <point x="628.821" y="145"/>
      <point x="619.922" y="169"/>
      <point x="600.11" y="184"/>
    </contour>
  </outline>
</glyph>
<glyph name="quotesingle" format="1">
  <advance width="148"/>
  <unicode hex="0027"/>
  <outline>
    <contour>
      <point x="175.514" y="694" type="line"/>
      <point x="179.978" y="715"/>
      <point x="211.654" y="737"/>
      <point x="247.654" y="737"/>
      <point x="269.978" y="715"/>
      <point x="265.514" y="694" type="qcurve"/>
      <point x="228.771" y="587" type="line"/>
      <point x="166.771" y="587" type="line"/>
    </contour>
  </outline>
</glyph>
<glyph name="parenleft" format="1">
  <advance width="240"/>
  <unicode hex="0028"/>
  <outline>
    <contour>
      <point x="368.954" y="729" type="line"/>
      <point x="368.954" y="729"/>
      <point x="346.403" y="717"/>
      <point x="315.451" y="689"/>
      <point x="285.461" y="642"/>
      <point x="277.809" y="606" type="qcurve" smooth="yes"/>
      <point x="247.839" y="465"/>
      <point x="206.39" y="270"/>
      <point x="179.396" y="143"/>
      <point x="170.893" y="103" type="qcurve" smooth="yes"/>
      <point x="162.604" y="64"/>
      <point x="171.338" y="11"/>
      <point x="190.536" y="-21"/>
      <point x="207.561" y="-35"/>
      <point x="207.561" y="-35" type="qcurve"/>
      <point x="135.343" y="-116" type="line"/>
      <point x="102.807" y="-95"/>
      <point x="66.0099" y="-47"/>
      <point x="51.2753" y="6"/>
      <point x="53.6036" y="64"/>
      <point x="59.9803" y="94" type="qcurve" smooth="yes"/>
      <point x="168.384" y="604" type="line" smooth="yes"/>
      <point x="176.886" y="644"/>
      <point x="215.253" y="721"/>
      <point x="280.92" y="790"/>
      <point x="332.446" y="816" type="qcurve"/>
    </contour>
  </outline>
</glyph>
<glyph name="one" format="1">
  <advance width="285"/>
  <unicode hex="0031"/>
  <outline>
    <contour>
      <point x="151.273" y="627" type="line"/>
      <point x="151.273" y="627"/>
      <point x="195.036" y="640"/>
      <point x="255.625" y="671"/>
      <point x="280.364" y="698" type="qcurve"/>
      <point x="390.364" y="698" type="line"/>
      <point x="242" y="0" type="line"/>
      <point x="131" y="0" type="line"/>
      <point x="250.394" y="557" type="line"/>
      <point x="237.694" y="549"/>
      <point x="196.143" y="537"/>
      <point x="163.868" y="531"/>
      <point x="163.868" y="531" type="qcurve"/>
    </contour>
  </outline>
</glyph>
<glyph name="five" format="1">
  <advance width="444"/>
  <unicode hex="0035"/>
  <outline>
    <contour>
      <point x="272.361" y="411" type="line"/>
      <point x="282.361" y="411" type="line"/>
      <point x="356.936" y="409"/>
      <point x="441.395" y="350"/>
      <point x="468.414" y="256"/>
      <point x="456.299" y="199" type="qcurve" smooth="yes"/>
      <point x="449.072" y="165"/>
      <point x="406.343" y="91"/>
      <point x="339.739" y="27"/>
      <point x="252.449" y="-12"/>
      <point x="199.449" y="-12" type="qcurve" smooth="yes"/>
      <point x="161.449" y="-12"/>
      <point x="98.8502" y="4"/>
      <point x="53.5265" y="26"/>
      <point x="28.9274" y="42"/>
      <point x="28.9274" y="42" type="qcurve"/>
      <point x="89.1203" y="137" type="line"/>
      <point x="89.1203" y="137"/>
      <point x="118.869" y="117"/>
      <point x="177.618" y="97"/>
      <point x="220.618" y="97" type="qcurve" smooth="yes"/>
      <point x="254.618" y="97"/>
      <point x="307.782" y="126"/>
      <point x="342.197" y="175"/>
      <point x="348.362" y="204" type="qcurve" smooth="yes"/>
      <point x="356.439" y="242"/>
      <point x="334.429" y="289"/>
      <point x="277.893" y="310"/>
      <point x="234.893" y="310" type="qcurve" smooth="yes"/>
      <point x="134.893" y="310" type="line"/>
      <point x="240.364" y="698" type="line"/>
      <point x="506.364" y="698" type="line"/>
      <point x="482.983" y="588" type="line"/>
      <point x="318.983" y="588" type="line"/>
    </contour>
  </outline>
</glyph>
<glyph name="seven" format="1">
  <advance width="464"/>
  <unicode hex="0037"/>
  <outline>
    <contour>
      <point x="148" y="0" type="line"/>
      <point x="27" y="0" type="line"/>
      <point x="441.983" y="588" type="line"/>
      <point x="172.983" y="588" type="line"/>
      <point x="196.364" y="698" type="line"/>
      <point x="589.364" y="698" type="line"/>
      <point x="565.983" y="588" type="line"/>
    </contour>
  </outline>
</glyph>
<glyph name="colon" format="1">
  <advance width="196"/>
  <unicode hex="003A"/>
  <outline>
    <contour>
      <point x="187.396" y="143" type="qcurve" smooth="yes"/>
      <point x="182.082" y="118"/>
      <point x="138.855" y="84"/>
      <point x="113.855" y="84" type="qcurve" smooth="yes"/>
      <point x="88.8547" y="84"/>
      <point x="63.0817" y="118"/>
      <point x="68.3956" y="143" type="qcurve" smooth="yes"/>
      <point x="73.7095" y="168"/>
      <point x="114.362" y="204"/>
      <point x="139.362" y="204" type="qcurve" smooth="yes"/>
      <point x="164.362" y="204"/>
      <point x="192.709" y="168"/>
    </contour>
    <contour>
      <point x="238.834" y="385" type="qcurve" smooth="yes"/>
      <point x="233.52" y="360"/>
      <point x="189.868" y="324"/>
      <point x="164.868" y="324" type="qcurve" smooth="yes"/>
      <point x="139.868" y="324"/>
      <point x="114.52" y="360"/>
      <point x="119.834" y="385" type="qcurve" smooth="yes"/>
      <point x="124.936" y="409"/>
      <point x="165.375" y="444"/>
      <point x="190.375" y="444" type="qcurve" smooth="yes"/>
      <point x="215.375" y="444"/>
      <point x="243.936" y="409"/>
    </contour>
  </outline>
</glyph>
<glyph name="semicolon" format="1">
  <advance width="195"/>
  <unicode hex="003B"/>
  <outline>
    <contour>
      <point x="68.9516" y="28" type="line"/>
      <point x="79.7148" y="41"/>
      <point x="95.0915" y="71"/>
      <point x="100.067" y="85" type="qcurve"/>
      <point x="81.1301" y="90"/>
      <point x="63.1445" y="123"/>
      <point x="67.3956" y="143" type="qcurve" smooth="yes"/>
      <point x="72.7095" y="168"/>
      <point x="113.936" y="202"/>
      <point x="138.936" y="202" type="qcurve" smooth="yes"/>
      <point x="162.936" y="202"/>
      <point x="190.71" y="168"/>
      <point x="185.396" y="143" type="qcurve" smooth="yes"/>
      <point x="178.169" y="109"/>
      <point x="147.541" y="59"/>
      <point x="113.739" y="27"/>
      <point x="90.3381" y="11"/>
      <point x="90.3381" y="11" type="qcurve"/>
    </contour>
    <contour>
      <point x="238.834" y="385" type="qcurve" smooth="yes"/>
      <point x="233.52" y="360"/>
      <point x="189.868" y="324"/>
      <point x="164.868" y="324" type="qcurve" smooth="yes"/>
      <point x="139.868" y="324"/>
      <point x="114.52" y="360"/>
      <point x="119.834" y="385" type="qcurve" smooth="yes"/>
      <point x="124.936" y="409"/>
      <point x="165.375" y="444"/>
      <point x="190.375" y="444" type="qcurve" smooth="yes"/>
      <point x="215.375" y="444"/>
      <point x="243.936" y="409"/>
    </contour>
  </outline>
</glyph>
<glyph name="E" format="1">
  <advance width="410"/>
  <unicode hex="0045"/>
    <anchor name="tonos" x="216.79" y="700"/>
    <anchor name="top" x="361.229" y="735"/>
    <anchor name="ogonek" x="204" y="0"/>
  <outline>
    <contour>
      <point x="41" y="0" type="line"/>
      <point x="189.364" y="698" type="line"/>
      <point x="523.364" y="698" type="line"/>
      <point x="499.983" y="588" type="line"/>
      <point x="275.983" y="588" type="line"/>
      <point x="238.786" y="413" type="line"/>
      <point x="375.786" y="413" type="line"/>
      <point x="322.467" y="308" type="line"/>
      <point x="216.467" y="308" type="line"/>
      <point x="172.256" y="100" type="line"/>
      <point x="394.256" y="100" type="line"/>
      <point x="373" y="0" type="line"/>
    </contour>
    <contour>
      <point x="216.79" y="700" type="move" name="tonos"/>
    </contour>
    <contour>
      <point x="361.229" y="735" type="move" name="top"/>
    </contour>
    <contour>
      <point x="204" y="0" type="move" name="ogonek"/>
    </contour>
  </outline>
</glyph>
<glyph name="G" format="1">
  <advance width="480"/>
  <unicode hex="0047"/>
    <anchor name="bottom" x="240" y="0"/>
    <anchor name="top" x="396.229" y="735"/>
  <outline>
    <contour>
      <point x="461.458" y="576" type="line"/>
      <point x="439.158" y="584"/>
      <point x="395.284" y="594"/>
      <point x="374.284" y="594" type="qcurve" smooth="yes"/>
      <point x="355.284" y="594"/>
      <point x="321.221" y="589"/>
      <point x="306.946" y="583" type="qcurve" smooth="yes"/>
      <point x="287.032" y="574"/>
      <point x="260.591" y="539"/>
      <point x="254.426" y="510" type="qcurve" smooth="yes"/>
      <point x="185.756" y="187" type="line" smooth="yes"/>
      <point x="175.551" y="139"/>
      <point x="218.473" y="101"/>
      <point x="267.473" y="101" type="qcurve" smooth="yes"/>
      <point x="316.473" y="101"/>
      <point x="343.575" y="125" type="qcurve" smooth="yes"/>
      <point x="354.914" y="136"/>
      <point x="372.292" y="166"/>
      <point x="376.544" y="186" type="qcurve" smooth="yes"/>
      <point x="378.457" y="195" type="line"/>
      <point x="321.457" y="195" type="line"/>
      <point x="308.78" y="300" type="line"/>
      <point x="510.78" y="300" type="line"/>
      <point x="447" y="0" type="line"/>
      <point x="371" y="0" type="line"/>
      <point x="371.953" y="28" type="line"/>
      <point x="351.976" y="14"/>
      <point x="301.362" y="-3"/>
      <point x="257.874" y="-10"/>
      <point x="244.874" y="-10" type="qcurve" smooth="yes"/>
      <point x="199.874" y="-10"/>
      <point x="131.551" y="12"/>
      <point x="105.866" y="37" type="qcurve" smooth="yes"/>
      <point x="80.1812" y="62"/>
      <point x="65.764" y="140"/>
      <point x="76.1814" y="189" type="qcurve" smooth="yes"/>
      <point x="142.725" y="502" type="line" smooth="yes"/>
      <point x="156.332" y="566"/>
      <point x="219.678" y="657"/>
      <point x="268.206" y="683" type="qcurve" smooth="yes"/>
      <point x="293.97" y="696"/>
      <point x="352.521" y="708"/>
      <point x="392.521" y="708" type="qcurve"/>
      <point x="462.883" y="705"/>
      <point x="515.505" y="675" type="qcurve"/>
    </contour>
    <contour>
      <point x="240" y="0" type="move" name="bottom"/>
    </contour>
    <contour>
      <point x="396.229" y="735" type="move" name="top"/>
    </contour>
  </outline>
</glyph>
<glyph name="N" format="1">
  <advance width="576"/>
  <unicode hex="004E"/>
    <anchor name="top" x="444.229" y="735"/>
    <anchor name="bottom" x="288" y="0"/>
  <outline>
    <contour>
      <point x="681.395" y="698" type="line"/>
      <point x="533" y="0" type="line"/>
      <point x="422" y="0" type="line"/>
      <point x="251.347" y="472" type="line"/>
      <point x="151" y="0" type="line"/>
      <point x="41" y="0" type="line"/>
      <point x="189.395" y="698" type="line"/>
      <point x="299.395" y="698" type="line"/>
      <point x="466.646" y="210" type="line"/>
      <point x="570.395" y="698" type="line"/>
    </contour>
    <contour>
      <point x="444.229" y="735" type="move" name="top"/>
    </contour>
    <contour>
      <point x="288" y="0" type="move" name="bottom"/>
    </contour>
  </outline>
</glyph>
<glyph name="O" format="1">
  <advance width="493"/>
  <unicode hex="004F"/>
    <anchor name="top" x="402.229" y="735"/>
    <anchor name="tonos" x="230.79" y="700"/>
  <outline>
    <contour>
      <point x="143.554" y="506" type="line" smooth="yes"/>
      <point x="165.234" y="608"/>
      <point x="300.978" y="715"/>
      <point x="399.978" y="715" type="qcurve" smooth="yes"/>
      <point x="498.978" y="715"/>
      <point x="584.172" y="603"/>
      <point x="563.341" y="505" type="qcurve" smooth="yes"/>
      <point x="495.323" y="185" type="line" smooth="yes"/>
      <point x="482.357" y="124"/>
      <point x="411.652" y="36"/>
      <point x="307.662" y="-11"/>
      <point x="244.662" y="-11" type="qcurve" smooth="yes"/>
      <point x="185.662" y="-11"/>
      <point x="99.0144" y="33"/>
      <point x="61.7193" y="121"/>
      <point x="75.323" y="185" type="qcurve" smooth="yes"/>
    </contour>
    <contour>
      <point x="189.362" y="204" type="line" smooth="yes"/>
      <point x="182.56" y="172"/>
      <point x="194.782" y="126"/>
      <point x="234.468" y="101"/>
      <point x="267.468" y="101" type="qcurve" smooth="yes"/>
      <point x="299.468" y="101"/>
      <point x="348.995" y="127"/>
      <point x="383.197" y="175"/>
      <point x="389.787" y="206" type="qcurve" smooth="yes"/>
      <point x="445.689" y="469" type="line" smooth="yes"/>
      <point x="459.293" y="533"/>
      <point x="431.109" y="598"/>
      <point x="373.109" y="598" type="qcurve" smooth="yes"/>
      <point x="321.109" y="598"/>
      <point x="259.718" y="535"/>
      <point x="245.902" y="470" type="qcurve" smooth="yes"/>
    </contour>
    <contour>
      <point x="402.229" y="735" type="move" name="top"/>
    </contour>
    <contour>
      <point x="230.79" y="700" type="move" name="tonos"/>
    </contour>
  </outline>
</glyph>
<glyph name="P" format="1">
  <advance width="507"/>
  <unicode hex="0050"/>
  <outline>
    <contour>
      <point x="406.364" y="698" type="line" smooth="yes"/>
      <point x="445.364" y="698"/>
      <point x="518.688" y="676"/>
      <point x="569.998" y="621"/>
      <point x="587.592" y="525"/>
      <point x="571.863" y="451" type="qcurve" smooth="yes"/>
      <point x="554.646" y="370"/>
      <point x="496.178" y="269"/>
      <point x="421.7" y="215"/>
      <point x="339.449" y="195"/>
      <point x="299.449" y="195" type="qcurve"/>
      <point x="297.449" y="195"/>
      <point x="264.449" y="195"/>
      <point x="223.449" y="195"/>
      <point x="192.449" y="195"/>
      <point x="192.449" y="195" type="qcurve"/>
      <point x="151" y="0" type="line"/>
      <point x="41" y="0" type="line"/>
      <point x="189.364" y="698" type="line"/>
    </contour>
    <contour>
      <point x="214.767" y="300" type="line"/>
      <point x="214.767" y="300"/>
      <point x="245.767" y="300"/>
      <point x="278.767" y="300"/>
      <point x="280.767" y="300" type="qcurve"/>
      <point x="332.767" y="300"/>
      <point x="402.018" y="320"/>
      <point x="446.622" y="384"/>
      <point x="460.863" y="451" type="qcurve" smooth="yes"/>
      <point x="474.254" y="514"/>
      <point x="455.582" y="572"/>
      <point x="392.983" y="588"/>
      <point x="341.983" y="588" type="qcurve" smooth="yes"/>
      <point x="275.983" y="588" type="line"/>
    </contour>
  </outline>
</glyph>
<glyph name="U" format="1">
  <advance width="499"/>
  <unicode hex="0055"/>
    <anchor name="top" x="405.229" y="735"/>
    <anchor name="ogonek" x="249" y="0"/>
  <outline>
    <contour>
      <point x="498.323" y="185" type="line" smooth="yes"/>
      <point x="476.855" y="84"/>
      <point x="404.652" y="36" type="qcurve" smooth="yes"/>
      <point x="333.662" y="-11"/>
      <point x="247.662" y="-11" type="qcurve" smooth="yes"/>
      <point x="162.662" y="-11"/>
      <point x="108.652" y="36" type="qcurve"/>
      <point x="57.2799" y="86"/>
      <point x="78.323" y="185" type="qcurve" smooth="yes"/>
      <point x="187.364" y="698" type="line"/>
      <point x="297.364" y="698" type="line"/>
      <point x="192.362" y="204" type="line" smooth="yes"/>
      <point x="180.671" y="149"/>
      <point x="206.932" y="122" type="qcurve"/>
      <point x="225.468" y="101"/>
      <point x="270.468" y="101" type="qcurve" smooth="yes"/>
      <point x="292.468" y="101"/>
      <point x="330.231" y="114"/>
      <point x="345.995" y="127" type="qcurve" smooth="yes"/>
      <point x="362.758" y="140"/>
      <point x="387.473" y="181"/>
      <point x="392.787" y="206" type="qcurve" smooth="yes"/>
      <point x="497.364" y="698" type="line"/>
      <point x="607.364" y="698" type="line"/>
    </contour>
    <contour>
      <point x="405.229" y="735" type="move" name="top"/>
    </contour>
    <contour>
      <point x="249" y="0" type="move" name="ogonek"/>
    </contour>
  </outline>
</glyph>
<glyph name="bracketright" format="1">
  <advance width="234"/>
  <unicode hex="005D"/>
  <outline>
    <contour>
      <point x="6.76855" y="-114" type="line"/>
      <point x="29.087" y="-9" type="line"/>
      <point x="81.2126" y="1" type="line"/>
      <point x="230.002" y="701" type="line"/>
      <point x="182.128" y="711" type="line"/>
      <point x="204.446" y="816" type="line"/>
      <point x="364.446" y="816" type="line"/>
      <point x="166.769" y="-114" type="line"/>
    </contour>
  </outline>
</glyph>
<glyph name="a" format="1">
  <advance width="450"/>
  <unicode hex="0061"/>
    <anchor name="top" x="340.843" y="545"/>
    <anchor name="ogonek" x="225" y="0"/>
  <outline>
    <contour>
      <point x="374.994" y="334" type="qcurve"/>
      <point x="381.796" y="366"/>
      <point x="378.598" y="398"/>
      <point x="371.298" y="406" type="qcurve" smooth="yes"/>
      <point x="360.849" y="418"/>
      <point x="321.037" y="433"/>
      <point x="289.037" y="433" type="qcurve"/>
      <point x="313.979" y="508" type="line"/>
      <point x="353.979" y="508"/>
      <point x="439.003" y="494"/>
      <point x="465.626" y="464" type="qcurve" smooth="yes"/>
      <point x="480.225" y="448"/>
      <point x="493.709" y="375"/>
      <point x="479.042" y="306" type="qcurve" smooth="yes"/>
      <point x="471.815" y="272"/>
      <point x="454.598" y="191"/>
      <point x="437.169" y="109"/>
      <point x="422.715" y="41"/>
      <point x="414" y="0"/>
      <point x="414" y="0" type="qcurve"/>
      <point x="392.362" y="-3"/>
      <point x="349.512" y="-7"/>
      <point x="303.874" y="-10"/>
      <point x="256.662" y="-11"/>
      <point x="231.662" y="-11" type="qcurve" smooth="yes"/>
      <point x="174.662" y="-11"/>
      <point x="90.0386" y="19"/>
      <point x="50.5552" y="92"/>
      <point x="61.9463" y="155" type="qcurve"/>
      <point x="61.9463" y="155"/>
      <point x="68.1104" y="184"/>
      <point x="76.4001" y="223"/>
      <point x="82.5643" y="252"/>
      <point x="82.5643" y="252" type="qcurve"/>
      <point x="90.6414" y="290"/>
      <point x="123.545" y="346"/>
      <point x="169.197" y="382"/>
      <point x="222.023" y="400"/>
      <point x="249.023" y="400" type="qcurve" smooth="yes"/>
      <point x="284.023" y="400"/>
      <point x="359.008" y="367"/>
    </contour>
    <contour>
      <point x="357.564" y="252" type="qcurve"/>
      <point x="352.414" y="256"/>
      <point x="322.028" y="273"/>
      <point x="279.004" y="287"/>
      <point x="256.004" y="287" type="qcurve" smooth="yes"/>
      <point x="241.004" y="287"/>
      <point x="214.091" y="278"/>
      <point x="194.627" y="257"/>
      <point x="190.588" y="238" type="qcurve" smooth="yes"/>
      <point x="187.4" y="223"/>
      <point x="179.536" y="186"/>
      <point x="176.772" y="173" type="qcurve" smooth="yes"/>
      <point x="172.734" y="154"/>
      <point x="173.357" y="124"/>
      <point x="189.681" y="102"/>
      <point x="228.13" y="90"/>
      <point x="262.13" y="90" type="qcurve" smooth="yes"/>
      <point x="268.13" y="90"/>
      <point x="289.343" y="91"/>
      <point x="309.768" y="93"/>
      <point x="323.98" y="94"/>
      <point x="323.98" y="94" type="qcurve"/>
      <point x="323.98" y="94"/>
      <point x="328.869" y="117"/>
      <point x="336.521" y="153"/>
      <point x="345.023" y="193"/>
      <point x="352.676" y="229"/>
      <point x="357.564" y="252"/>
    </contour>
    <contour>
      <point x="340.843" y="545" type="move" name="top"/>
    </contour>
    <contour>
      <point x="225" y="0" type="move" name="ogonek"/>
    </contour>
  </outline>
</glyph>
<glyph name="b" format="1">
  <advance width="457"/>
  <unicode hex="0062"/>
  <outline>
    <contour>
      <point x="253.452" y="482" type="line"/>
      <point x="288.428" y="496"/>
      <point x="349.979" y="508"/>
      <point x="383.979" y="508" type="qcurve" smooth="yes"/>
      <point x="411.979" y="508"/>
      <point x="461.153" y="490"/>
      <point x="496.288" y="453"/>
      <point x="509.385" y="397"/>
      <point x="501.308" y="359" type="qcurve"/>
      <point x="501.308" y="359"/>
      <point x="492.593" y="318"/>
      <point x="479.627" y="257"/>
      <point x="466.874" y="197"/>
      <point x="457.946" y="155"/>
      <point x="457.946" y="155" type="qcurve"/>
      <point x="441.13" y="90"/>
      <point x="369.826" y="18"/>
      <point x="271.662" y="-11"/>
      <point x="214.662" y="-11" type="qcurve" smooth="yes"/>
      <point x="192.662" y="-11"/>
      <point x="149.087" y="-9"/>
      <point x="105.937" y="-5"/>
      <point x="62.7874" y="-1"/>
      <point x="41" y="0" type="qcurve"/>
      <point x="189.364" y="698" type="line"/>
      <point x="299.364" y="698" type="line"/>
    </contour>
    <contour>
      <point x="170.98" y="94" type="qcurve"/>
      <point x="170.98" y="94"/>
      <point x="184.768" y="93"/>
      <point x="203.555" y="92"/>
      <point x="223.343" y="91"/>
      <point x="229.343" y="91" type="qcurve" smooth="yes"/>
      <point x="264.343" y="91"/>
      <point x="307.893" y="103"/>
      <point x="334.357" y="124"/>
      <point x="347.946" y="155"/>
      <point x="351.985" y="174" type="qcurve" smooth="yes"/>
      <point x="353.473" y="181"/>
      <point x="363.675" y="229"/>
      <point x="376.216" y="288"/>
      <point x="386.632" y="337"/>
      <point x="388.332" y="345" type="qcurve" smooth="yes"/>
      <point x="392.371" y="364"/>
      <point x="374.834" y="385"/>
      <point x="344.747" y="394"/>
      <point x="329.747" y="394" type="qcurve" smooth="yes"/>
      <point x="294.747" y="394"/>
      <point x="238.709" y="375"/>
      <point x="229.646" y="370" type="qcurve"/>
      <point x="229.646" y="370"/>
      <point x="223.269" y="340"/>
      <point x="212.854" y="291"/>
      <point x="200.313" y="232"/>
      <point x="187.772" y="173"/>
      <point x="177.357" y="124"/>
      <point x="170.98" y="94"/>
    </contour>
  </outline>
</glyph>
<glyph name="d" format="1">
  <advance width="459"/>
  <unicode hex="0064"/>
    <anchor name="top" x="385.229" y="735"/>
  <outline>
    <contour>
      <point x="416" y="0" type="line"/>
      <point x="395.362" y="-3"/>
      <point x="352.512" y="-7"/>
      <point x="307.874" y="-10"/>
      <point x="260.661" y="-11"/>
      <point x="236.661" y="-11" type="qcurve" smooth="yes"/>
      <point x="180.661" y="-11"/>
      <point x="93.8898" y="23"/>
      <point x="53.4096" y="96"/>
      <point x="63.953" y="155" type="qcurve"/>
      <point x="107.323" y="359" type="line" smooth="yes"/>
      <point x="118.166" y="410"/>
      <point x="176.198" y="476"/>
      <point x="251.001" y="508"/>
      <point x="288.001" y="508" type="qcurve" smooth="yes"/>
      <point x="323.001" y="508"/>
      <point x="379.45" y="496"/>
      <point x="408.473" y="482" type="qcurve"/>
      <point x="454.395" y="698" type="line"/>
      <point x="564.395" y="698" type="line"/>
    </contour>
    <contour>
      <point x="384.662" y="370" type="line"/>
      <point x="376.725" y="375"/>
      <point x="330.764" y="394"/>
      <point x="295.764" y="394" type="qcurve" smooth="yes"/>
      <point x="280.764" y="394"/>
      <point x="245.851" y="385"/>
      <point x="219.386" y="364"/>
      <point x="215.347" y="345" type="qcurve" smooth="yes"/>
      <point x="178.992" y="174" type="line" smooth="yes"/>
      <point x="174.953" y="155"/>
      <point x="176.362" y="124"/>
      <point x="192.898" y="103"/>
      <point x="231.347" y="91"/>
      <point x="265.347" y="91" type="qcurve" smooth="yes"/>
      <point x="271.347" y="91"/>
      <point x="291.559" y="92"/>
      <point x="311.772" y="93"/>
      <point x="325.984" y="94"/>
      <point x="325.984" y="94" type="qcurve"/>
    </contour>
    <contour>
      <point x="385.229" y="735" type="move" name="top"/>
    </contour>
  </outline>
</glyph>
<glyph name="g" format="1">
  <advance width="442"/>
  <unicode hex="0067"/>
    <anchor name="top" x="336.843" y="545"/>
  <outline>
    <contour>
      <point x="388.394" y="-64" type="line" smooth="yes"/>
      <point x="371.598" y="-143"/>
      <point x="272.354" y="-210"/>
      <point x="201.354" y="-210" type="qcurve"/>
      <point x="192.638" y="-124" type="line"/>
      <point x="209.638" y="-124"/>
      <point x="245.401" y="-111"/>
      <point x="275.205" y="-79"/>
      <point x="280.732" y="-53" type="qcurve" smooth="yes"/>
      <point x="294.551" y="12" type="line"/>
      <point x="282.063" y="5"/>
      <point x="249.724" y="-6"/>
      <point x="216.449" y="-12"/>
      <point x="199.449" y="-12" type="qcurve" smooth="yes"/>
      <point x="116.449" y="-12"/>
      <point x="49.8584" y="84"/>
      <point x="69.4176" y="176" type="qcurve" smooth="yes"/>
      <point x="105.347" y="345" type="line" smooth="yes"/>
      <point x="121.505" y="421"/>
      <point x="221.213" y="509"/>
      <point x="298.213" y="509" type="qcurve" smooth="yes"/>
      <point x="317.213" y="509"/>
      <point x="350.725" y="502"/>
      <point x="380.749" y="488"/>
      <point x="393.41" y="477" type="qcurve"/>
      <point x="398.087" y="499" type="line"/>
      <point x="508.087" y="499" type="line"/>
    </contour>
    <contour>
      <point x="374.064" y="386" type="line"/>
      <point x="374.064" y="386"/>
      <point x="352.615" y="398"/>
      <point x="320.166" y="410"/>
      <point x="303.166" y="410" type="qcurve" smooth="yes"/>
      <point x="284.166" y="410"/>
      <point x="247.402" y="397"/>
      <point x="219.599" y="365"/>
      <point x="213.646" y="337" type="qcurve" smooth="yes"/>
      <point x="175.803" y="159" type="line" smooth="yes"/>
      <point x="169.638" y="130"/>
      <point x="194.709" y="88"/>
      <point x="229.709" y="88" type="qcurve"/>
      <point x="258.134" y="90"/>
      <point x="296.536" y="106"/>
      <point x="319.213" y="128"/>
      <point x="321.551" y="139" type="qcurve" smooth="yes"/>
    </contour>
    <contour>
      <point x="336.843" y="545" type="move" name="top"/>
    </contour>
  </outline>
</glyph>
<glyph name="n" format="1">
  <advance width="445"/>
  <unicode hex="006E"/>
    <anchor name="top" x="337.843" y="545"/>
    <anchor name="bottom" x="222" y="0"/>
  <outline>
    <contour>
      <point x="371.709" y="342" type="line" smooth="yes"/>
      <point x="375.749" y="361"/>
      <point x="364.127" y="391"/>
      <point x="335.953" y="409"/>
      <point x="314.953" y="409" type="qcurve" smooth="yes"/>
      <point x="297.953" y="409"/>
      <point x="256.615" y="398"/>
      <point x="229.851" y="385" type="qcurve"/>
      <point x="147.787" y="-1" type="line"/>
      <point x="38.7874" y="-1" type="line"/>
      <point x="145.087" y="499" type="line"/>
      <point x="254.087" y="499" type="line"/>
      <point x="249.198" y="476" type="line"/>
      <point x="263.898" y="484"/>
      <point x="325.001" y="508"/>
      <point x="356.001" y="508" type="qcurve" smooth="yes"/>
      <point x="386.001" y="508"/>
      <point x="439.812" y="493"/>
      <point x="477.946" y="456"/>
      <point x="491.552" y="393"/>
      <point x="481.347" y="345" type="qcurve" smooth="yes"/>
      <point x="407.787" y="-1" type="line"/>
      <point x="298.787" y="-1" type="line"/>
    </contour>
    <contour>
      <point x="337.843" y="545" type="move" name="top"/>
    </contour>
    <contour>
      <point x="222" y="0" type="move" name="bottom"/>
    </contour>
  </outline>
</glyph>
<glyph name="p" format="1">
  <advance width="443"/>
  <unicode hex="0070"/>
  <outline>
    <contour>
      <point x="446.41" y="176" type="line" smooth="yes"/>
      <point x="426.855" y="84"/>
      <point x="320.449" y="-12"/>
      <point x="237.449" y="-12" type="qcurve" smooth="yes"/>
      <point x="221.449" y="-12"/>
      <point x="189.725" y="-6"/>
      <point x="163.063" y="5"/>
      <point x="152.551" y="12" type="qcurve"/>
      <point x="104.725" y="-213" type="line"/>
      <point x="-2.29877" y="-199" type="line"/>
      <point x="146.066" y="499" type="line"/>
      <point x="256.066" y="499" type="line"/>
      <point x="251.389" y="477" type="line"/>
      <point x="259.877" y="484"/>
      <point x="295.853" y="498"/>
      <point x="341.191" y="509"/>
      <point x="360.191" y="509" type="qcurve" smooth="yes"/>
      <point x="436.191" y="509"/>
      <point x="498.486" y="421"/>
      <point x="482.332" y="345" type="qcurve" smooth="yes"/>
    </contour>
    <contour>
      <point x="370.632" y="337" type="line" smooth="yes"/>
      <point x="376.583" y="365"/>
      <point x="362.385" y="397"/>
      <point x="332.148" y="410"/>
      <point x="313.148" y="410" type="qcurve" smooth="yes"/>
      <point x="296.148" y="410"/>
      <point x="258.598" y="398"/>
      <point x="232.047" y="386"/>
      <point x="232.047" y="386" type="qcurve"/>
      <point x="179.545" y="139" type="line" smooth="yes"/>
      <point x="175.719" y="121"/>
      <point x="199.831" y="98"/>
      <point x="237.705" y="88"/>
      <point x="253.705" y="88" type="qcurve" smooth="yes"/>
      <point x="284.705" y="88"/>
      <point x="325.995" y="127"/>
      <point x="332.796" y="159" type="qcurve" smooth="yes"/>
    </contour>
  </outline>
</glyph>
<glyph name="q" format="1">
  <advance width="442"/>
  <unicode hex="0071"/>
  <outline>
    <contour>
      <point x="294.763" y="13" type="line"/>
      <point x="281.275" y="6"/>
      <point x="248.937" y="-5"/>
      <point x="215.662" y="-11"/>
      <point x="199.662" y="-11" type="qcurve" smooth="yes"/>
      <point x="116.662" y="-11"/>
      <point x="50.0673" y="85"/>
      <point x="69.41" y="176" type="qcurve" smooth="yes"/>
      <point x="105.332" y="345" type="line" smooth="yes"/>
      <point x="121.699" y="422"/>
      <point x="222.404" y="510"/>
      <point x="300.404" y="510" type="qcurve" smooth="yes"/>
      <point x="318.404" y="510"/>
      <point x="350.703" y="502"/>
      <point x="380.728" y="488"/>
      <point x="393.389" y="477" type="qcurve"/>
      <point x="398.066" y="499" type="line"/>
      <point x="508.066" y="499" type="line"/>
      <point x="356.938" y="-212" type="line"/>
      <point x="249.914" y="-198" type="line"/>
    </contour>
    <contour>
      <point x="374.259" y="387" type="line"/>
      <point x="374.259" y="387"/>
      <point x="352.81" y="399"/>
      <point x="320.361" y="411"/>
      <point x="302.361" y="411" type="qcurve" smooth="yes"/>
      <point x="284.361" y="411"/>
      <point x="248.598" y="398"/>
      <point x="219.796" y="366"/>
      <point x="213.844" y="338" type="qcurve" smooth="yes"/>
      <point x="176.222" y="161" type="line" smooth="yes"/>
      <point x="170.057" y="132"/>
      <point x="192.918" y="89"/>
      <point x="229.918" y="89" type="qcurve"/>
      <point x="251.13" y="90"/>
      <point x="283.256" y="100"/>
      <point x="306.231" y="114"/>
      <point x="319.845" y="131"/>
      <point x="321.758" y="140" type="qcurve" smooth="yes"/>
    </contour>
  </outline>
</glyph>
<glyph name="braceright" format="1">
  <advance width="297"/>
  <unicode hex="007D"/>
  <outline>
    <contour>
      <point x="252.509" y="821" type="line"/>
      <point x="254.509" y="821"/>
      <point x="284.108" y="805"/>
      <point x="318.606" y="765"/>
      <point x="334.451" y="689"/>
      <point x="321.698" y="629" type="qcurve" smooth="yes"/>
      <point x="297.679" y="516" type="line" smooth="yes"/>
      <point x="291.728" y="488"/>
      <point x="288.462" y="435"/>
      <point x="306.834" y="385"/>
      <point x="332.52" y="360" type="qcurve" smooth="yes"/>
      <point x="341.82" y="352" type="line"/>
      <point x="330.332" y="345" type="line" smooth="yes"/>
      <point x="294.231" y="321"/>
      <point x="253.39" y="270"/>
      <point x="234.125" y="217"/>
      <point x="228.173" y="189" type="qcurve" smooth="yes"/>
      <point x="204.154" y="76" type="line" smooth="yes"/>
      <point x="191.401" y="16"/>
      <point x="143.247" y="-60"/>
      <point x="92.5318" y="-101"/>
      <point x="55.1309" y="-117"/>
      <point x="53.1309" y="-117" type="qcurve"/>
      <point x="19.7731" y="-34" type="line"/>
      <point x="30.8359" y="-29"/>
      <point x="52.0242" y="-14"/>
      <point x="72.1256" y="10"/>
      <point x="88.2027" y="48"/>
      <point x="94.1543" y="76" type="qcurve" smooth="yes"/>
      <point x="118.173" y="189" type="line" smooth="yes"/>
      <point x="124.337" y="218"/>
      <point x="143.028" y="273"/>
      <point x="182.506" y="327"/>
      <point x="218.82" y="352" type="qcurve"/>
      <point x="193.346" y="378"/>
      <point x="176.824" y="432"/>
      <point x="181.728" y="488"/>
      <point x="187.679" y="516" type="qcurve" smooth="yes"/>
      <point x="211.698" y="629" type="line" smooth="yes"/>
      <point x="217.65" y="657"/>
      <point x="217.727" y="695"/>
      <point x="207.828" y="719"/>
      <point x="193.016" y="734"/>
      <point x="184.079" y="739" type="qcurve"/>
    </contour>
  </outline>
</glyph>
<glyph name="exclamdown" format="1">
  <advance width="194"/>
  <unicode hex="00A1"/>
  <outline>
    <contour>
      <point x="169.454" y="68" type="line"/>
      <point x="155" y="0"/>
      <point x="95" y="0" type="qcurve" smooth="yes"/>
      <point x="67" y="0"/>
      <point x="46.4395" y="35"/>
      <point x="53.6664" y="69" type="qcurve"/>
      <point x="181.983" y="588" type="line"/>
      <point x="257.983" y="588" type="line"/>
    </contour>
    <contour>
      <point x="297.138" y="664" type="qcurve" smooth="yes"/>
      <point x="291.824" y="639"/>
      <point x="250.597" y="605"/>
      <point x="225.597" y="605" type="qcurve" smooth="yes"/>
      <point x="201.597" y="605"/>
      <point x="173.824" y="639"/>
      <point x="179.138" y="664" type="qcurve" smooth="yes"/>
      <point x="184.451" y="689"/>
      <point x="226.891" y="724"/>
      <point x="250.891" y="724" type="qcurve" smooth="yes"/>
      <point x="275.891" y="724"/>
      <point x="302.451" y="689"/>
    </contour>
  </outline>
</glyph>
<glyph name="currency" format="1">
  <advance width="497"/>
  <unicode hex="00A4"/>
  <outline>
    <contour>
      <point x="451.182" y="349" type="line"/>
      <point x="455.994" y="334"/>
      <point x="457.98" y="301"/>
      <point x="454.153" y="283" type="qcurve" smooth="yes"/>
      <point x="450.115" y="264"/>
      <point x="434.313" y="232"/>
      <point x="423.125" y="217" type="qcurve"/>
      <point x="491.845" y="131" type="line"/>
      <point x="414.454" y="68" type="line"/>
      <point x="345.521" y="153" type="line"/>
      <point x="330.033" y="146"/>
      <point x="294.12" y="137"/>
      <point x="277.12" y="137" type="qcurve" smooth="yes"/>
      <point x="259.12" y="137"/>
      <point x="228.246" y="147"/>
      <point x="214.734" y="154" type="qcurve"/>
      <point x="110.454" y="68" type="line"/>
      <point x="60.8449" y="131" type="line"/>
      <point x="165.125" y="217" type="line"/>
      <point x="161.313" y="232"/>
      <point x="159.115" y="264"/>
      <point x="163.153" y="283" type="qcurve" smooth="yes"/>
      <point x="166.767" y="300"/>
      <point x="182.994" y="334"/>
      <point x="192.97" y="348" type="qcurve"/>
      <point x="125.462" y="435" type="line"/>
      <point x="201.853" y="498" type="line"/>
      <point x="269.361" y="411" type="line"/>
      <point x="303.974" y="428"/>
      <point x="338.974" y="428" type="qcurve" smooth="yes"/>
      <point x="356.974" y="428"/>
      <point x="388.061" y="419"/>
      <point x="401.361" y="411" type="qcurve"/>
      <point x="505.853" y="498" type="line"/>
      <point x="556.462" y="435" type="line"/>
    </contour>
    <contour>
      <point x="297.101" y="231" type="qcurve" smooth="yes"/>
      <point x="312.101" y="231"/>
      <point x="338.076" y="245"/>
      <point x="357.178" y="269"/>
      <point x="360.154" y="283" type="qcurve" smooth="yes"/>
      <point x="363.342" y="298"/>
      <point x="354.231" y="321"/>
      <point x="333.994" y="334"/>
      <point x="318.994" y="334" type="qcurve" smooth="yes"/>
      <point x="304.994" y="334"/>
      <point x="279.231" y="321"/>
      <point x="260.342" y="298"/>
      <point x="257.154" y="283" type="qcurve" smooth="yes"/>
      <point x="254.178" y="269"/>
      <point x="263.076" y="245"/>
      <point x="283.101" y="231"/>
    </contour>
  </outline>
</glyph>
<glyph name="dieresis" format="1">
  <advance width="266"/>
  <unicode hex="00A8"/>
  <outline>
    <contour>
      <point x="217.031" y="767" type="qcurve" smooth="yes"/>
      <point x="242.031" y="767"/>
      <point x="268.591" y="732"/>
      <point x="263.49" y="708" type="qcurve" smooth="yes"/>
      <point x="258.176" y="683"/>
      <point x="216.737" y="648"/>
      <point x="191.737" y="648" type="qcurve" smooth="yes"/>
      <point x="166.737" y="648"/>
      <point x="139.176" y="683"/>
      <point x="144.49" y="708" type="qcurve" smooth="yes"/>
      <point x="149.591" y="732"/>
      <point x="192.031" y="767"/>
    </contour>
    <contour>
      <point x="375.031" y="767" type="qcurve" smooth="yes"/>
      <point x="400.031" y="767"/>
      <point x="427.591" y="732"/>
      <point x="422.49" y="708" type="qcurve" smooth="yes"/>
      <point x="417.176" y="683"/>
      <point x="374.737" y="648"/>
      <point x="349.737" y="648" type="qcurve" smooth="yes"/>
      <point x="324.737" y="648"/>
      <point x="297.176" y="683"/>
      <point x="302.49" y="708" type="qcurve" smooth="yes"/>
      <point x="307.591" y="732"/>
      <point x="350.031" y="767"/>
    </contour>
  </outline>
</glyph>
<glyph name="copyright" format="1">
  <advance width="783"/>
  <unicode hex="00A9"/>
  <outline>
    <contour>
      <point x="789.323" y="185" type="line" smooth="yes"/>
      <point x="769.768" y="93"/>
      <point x="651.623" y="-30"/>
      <point x="476.445" y="-92"/>
      <point x="371.02" y="-94" type="qcurve"/>
      <point x="266.445" y="-92"/>
      <point x="117.623" y="-30"/>
      <point x="51.7677" y="93"/>
      <point x="71.3229" y="185" type="qcurve" smooth="yes"/>
      <point x="101.293" y="326" type="line" smooth="yes"/>
      <point x="120.849" y="418"/>
      <point x="238.993" y="541"/>
      <point x="414.172" y="603"/>
      <point x="519.172" y="603" type="qcurve" smooth="yes"/>
      <point x="624.172" y="603"/>
      <point x="772.993" y="541"/>
      <point x="838.849" y="418"/>
      <point x="819.293" y="326" type="qcurve" smooth="yes"/>
    </contour>
    <contour>
      <point x="709.429" y="289" type="line" smooth="yes"/>
      <point x="728.346" y="378"/>
      <point x="695.689" y="469"/>
      <point x="589.703" y="502"/>
      <point x="497.916" y="503" type="qcurve"/>
      <point x="406.703" y="502"/>
      <point x="285.689" y="469"/>
      <point x="214.346" y="378"/>
      <point x="195.429" y="289" type="qcurve" smooth="yes"/>
      <point x="181.188" y="222" type="line" smooth="yes"/>
      <point x="162.27" y="133"/>
      <point x="194.715" y="41"/>
      <point x="301.7" y="8"/>
      <point x="392.488" y="7" type="qcurve"/>
      <point x="484.7" y="8"/>
      <point x="604.715" y="41"/>
      <point x="676.27" y="133"/>
      <point x="695.188" y="222" type="qcurve" smooth="yes"/>
    </contour>
    <contour>
      <point x="588.356" y="331" type="line"/>
      <point x="588.356" y="331"/>
      <point x="562.482" y="341"/>
      <point x="520.395" y="350"/>
      <point x="496.395" y="350" type="qcurve" smooth="yes"/>
      <point x="470.395" y="350"/>
      <point x="429.844" y="338"/>
      <point x="414.506" y="327" type="qcurve" smooth="yes"/>
      <point x="399.955" y="315"/>
      <point x="378.878" y="277"/>
      <point x="374.202" y="255" type="qcurve" smooth="yes"/>
      <point x="369.313" y="232"/>
      <point x="374.023" y="193"/>
      <point x="382.685" y="182" type="qcurve"/>
      <point x="393.347" y="171"/>
      <point x="424.647" y="163"/>
      <point x="442.647" y="163" type="qcurve" smooth="yes"/>
      <point x="466.647" y="163"/>
      <point x="519.772" y="173"/>
      <point x="566.323" y="185"/>
      <point x="595.449" y="195"/>
      <point x="595.449" y="195" type="qcurve"/>
      <point x="590.343" y="91" type="line"/>
      <point x="544.942" y="75"/>
      <point x="457.903" y="56"/>
      <point x="418.903" y="56" type="qcurve" smooth="yes"/>
      <point x="377.903" y="56"/>
      <point x="311.579" y="78"/>
      <point x="290.256" y="100" type="qcurve" smooth="yes"/>
      <point x="267.357" y="124"/>
      <point x="251.874" y="197"/>
      <point x="262.927" y="249" type="qcurve" smooth="yes"/>
      <point x="275.467" y="308"/>
      <point x="325.047" y="386"/>
      <point x="358.148" y="410" type="qcurve" smooth="yes"/>
      <point x="391.25" y="434"/>
      <point x="466.713" y="455"/>
      <point x="503.713" y="455" type="qcurve"/>
      <point x="540.501" y="454"/>
      <point x="608.675" y="436"/>
      <point x="635.486" y="421" type="qcurve"/>
    </contour>
  </outline>
</glyph>
<glyph name="registered" format="1">
  <advance width="783"/>
  <unicode hex="00AE"/>
  <outline>
    <contour>
      <point x="789.323" y="185" type="line" smooth="yes"/>
      <point x="769.768" y="93"/>
      <point x="651.623" y="-30"/>
      <point x="475.445" y="-92"/>
      <point x="370.02" y="-94" type="qcurve"/>
      <point x="265.445" y="-92"/>
      <point x="117.623" y="-30"/>
      <point x="51.7677" y="93"/>
      <point x="71.3229" y="185" type="qcurve" smooth="yes"/>
      <point x="101.293" y="326" type="line" smooth="yes"/>
      <point x="120.849" y="418"/>
      <point x="238.993" y="541"/>
      <point x="413.172" y="603"/>
      <point x="518.172" y="603" type="qcurve" smooth="yes"/>
      <point x="623.172" y="603"/>
      <point x="772.993" y="541"/>
      <point x="838.849" y="418"/>
      <point x="819.293" y="326" type="qcurve" smooth="yes"/>
    </contour>
    <contour>
      <point x="709.216" y="288" type="line" smooth="yes"/>
      <point x="728.134" y="377"/>
      <point x="694.689" y="469"/>
      <point x="588.703" y="502"/>
      <point x="496.916" y="503" type="qcurve"/>
      <point x="405.703" y="502"/>
      <point x="285.689" y="469"/>
      <point x="214.134" y="377"/>
      <point x="195.216" y="288" type="qcurve" smooth="yes"/>
      <point x="181.188" y="222" type="line" smooth="yes"/>
      <point x="162.27" y="133"/>
      <point x="194.715" y="41"/>
      <point x="300.7" y="8"/>
      <point x="391.488" y="7" type="qcurve"/>
      <point x="483.7" y="8"/>
      <point x="603.715" y="41"/>
      <point x="676.27" y="133"/>
      <point x="695.188" y="222" type="qcurve" smooth="yes"/>
    </contour>
    <contour>
      <point x="521.163" y="443" type="line" smooth="yes"/>
      <point x="560.163" y="443"/>
      <point x="611.337" y="425"/>
      <point x="637.259" y="387"/>
      <point x="639.293" y="326"/>
      <point x="630.153" y="283" type="qcurve" smooth="yes"/>
      <point x="619.526" y="233"/>
      <point x="580.497" y="167"/>
      <point x="550.883" y="150" type="qcurve"/>
      <point x="584.966" y="61" type="line"/>
      <point x="458.966" y="61" type="line"/>
      <point x="442.207" y="128" type="line"/>
      <point x="368.207" y="128" type="line"/>
      <point x="353.966" y="61" type="line"/>
      <point x="243.966" y="61" type="line"/>
      <point x="325.162" y="443" type="line"/>
    </contour>
    <contour>
      <point x="468.526" y="233" type="line" smooth="yes"/>
      <point x="485.526" y="233"/>
      <point x="513.927" y="249"/>
      <point x="521.153" y="283" type="qcurve" smooth="yes"/>
      <point x="528.593" y="318"/>
      <point x="505.781" y="333"/>
      <point x="488.781" y="333" type="qcurve" smooth="yes"/>
      <point x="411.781" y="333" type="line"/>
      <point x="390.526" y="233" type="line"/>
    </contour>
  </outline>
</glyph>
<glyph name="degree" format="1">
  <advance width="350"/>
  <unicode hex="00B0"/>
  <outline>
    <contour>
      <point x="439.882" y="564" type="qcurve" smooth="yes"/>
      <point x="431.38" y="524"/>
      <point x="378.351" y="458"/>
      <point x="304.061" y="419"/>
      <point x="263.061" y="419" type="qcurve" smooth="yes"/>
      <point x="223.061" y="419"/>
      <point x="164.351" y="458"/>
      <point x="139.38" y="524"/>
      <point x="147.882" y="564" type="qcurve" smooth="yes"/>
      <point x="156.597" y="605"/>
      <point x="209.625" y="671"/>
      <point x="284.915" y="710"/>
      <point x="324.915" y="710" type="qcurve" smooth="yes"/>
      <point x="365.915" y="710"/>
      <point x="423.625" y="671"/>
      <point x="448.597" y="605"/>
    </contour>
    <contour>
      <point x="305.147" y="617" type="qcurve" smooth="yes"/>
      <point x="291.147" y="617"/>
      <point x="264.172" y="603"/>
      <point x="245.07" y="579"/>
      <point x="241.882" y="564" type="qcurve" smooth="yes"/>
      <point x="238.906" y="550"/>
      <point x="247.805" y="526"/>
      <point x="268.829" y="512"/>
      <point x="282.829" y="512" type="qcurve" smooth="yes"/>
      <point x="296.829" y="512"/>
      <point x="323.805" y="526"/>
      <point x="343.906" y="550"/>
      <point x="346.882" y="564" type="qcurve" smooth="yes"/>
      <point x="350.07" y="579"/>
      <point x="340.172" y="603"/>
      <point x="319.147" y="617"/>
    </contour>
  </outline>
</glyph>
<glyph name="mu" format="1">
  <advance width="463"/>
  <unicode hex="00B5"/>
  <outline>
    <contour>
      <point x="431.811" y="112" type="line" smooth="yes"/>
      <point x="425.008" y="80"/>
      <point x="428.929" y="42"/>
      <point x="436.315" y="25"/>
      <point x="436.315" y="25" type="qcurve"/>
      <point x="335.787" y="-1" type="line"/>
      <point x="330.425" y="2"/>
      <point x="320.976" y="14"/>
      <point x="315.315" y="25"/>
      <point x="315.315" y="25" type="qcurve"/>
      <point x="313.402" y="16"/>
      <point x="279.213" y="1"/>
      <point x="240.087" y="-9"/>
      <point x="230.087" y="-9" type="qcurve" smooth="yes"/>
      <point x="218.087" y="-9"/>
      <point x="192.362" y="-3"/>
      <point x="166.764" y="13"/>
      <point x="155.165" y="29" type="qcurve"/>
      <point x="104.354" y="-210" type="line"/>
      <point x="-2.7326" y="-201" type="line"/>
      <point x="146.087" y="499" type="line"/>
      <point x="255.087" y="499" type="line"/>
      <point x="177.063" y="132" type="line" smooth="yes"/>
      <point x="175.362" y="124"/>
      <point x="193.173" y="109"/>
      <point x="221.835" y="98"/>
      <point x="249.559" y="92"/>
      <point x="256.559" y="92" type="qcurve" smooth="yes"/>
      <point x="288.559" y="92"/>
      <point x="324.638" y="130"/>
      <point x="330.591" y="158" type="qcurve" smooth="yes"/>
      <point x="402.45" y="496" type="line"/>
      <point x="516.213" y="509" type="line"/>
    </contour>
  </outline>
</glyph>
<glyph name="paragraph" format="1">
  <advance width="676"/>
  <unicode hex="00B6"/>
  <outline>
    <contour>
      <point x="288.449" y="195" type="line" smooth="yes"/>
      <point x="248.449" y="195"/>
      <point x="175.912" y="216"/>
      <point x="125.39" y="270"/>
      <point x="109.858" y="371"/>
      <point x="127.076" y="452" type="qcurve" smooth="yes"/>
      <point x="142.805" y="526"/>
      <point x="201.21" y="622"/>
      <point x="274.901" y="677"/>
      <point x="356.79" y="700"/>
      <point x="395.79" y="700" type="qcurve" smooth="yes"/>
      <point x="781.79" y="700" type="line"/>
      <point x="633.213" y="1" type="line"/>
      <point x="523.213" y="1" type="line"/>
      <point x="648.833" y="592" type="line"/>
      <point x="590.259" y="594" type="line"/>
      <point x="464.213" y="1" type="line"/>
      <point x="354.213" y="1" type="line"/>
      <point x="395.449" y="195" type="line"/>
    </contour>
    <contour>
      <point x="413.408" y="590" type="line" smooth="yes"/>
      <point x="363.408" y="590"/>
      <point x="293.795" y="573"/>
      <point x="250.467" y="515"/>
      <point x="237.076" y="452" type="qcurve" smooth="yes"/>
      <point x="222.834" y="385"/>
      <point x="240.018" y="320"/>
      <point x="300.767" y="300"/>
      <point x="351.767" y="300" type="qcurve" smooth="yes"/>
      <point x="417.767" y="300" type="line"/>
      <point x="479.408" y="590" type="line"/>
    </contour>
  </outline>
</glyph>
<glyph name="cedilla" format="1">
  <advance width="266"/>
  <unicode hex="00B8"/>
  <outline>
    <contour>
      <point x="172" y="0" type="line"/>
      <point x="139.071" y="-42" type="line"/>
      <point x="153.283" y="-41"/>
      <point x="163.496" y="-40"/>
      <point x="166.496" y="-40" type="qcurve" smooth="yes"/>
      <point x="197.496" y="-40"/>
      <point x="233.756" y="-67"/>
      <point x="246.827" y="-109"/>
      <point x="241.724" y="-133" type="qcurve" smooth="yes"/>
      <point x="232.157" y="-178"/>
      <point x="165.039" y="-235"/>
      <point x="103.039" y="-235" type="qcurve" smooth="yes"/>
      <point x="79.039" y="-235"/>
      <point x="34.3146" y="-229"/>
      <point x="4.5902" y="-223"/>
      <point x="3.5902" y="-223" type="qcurve"/>
      <point x="9.5666" y="-209"/>
      <point x="16.3934" y="-191"/>
      <point x="25.4328" y="-172"/>
      <point x="30.4092" y="-158" type="qcurve"/>
      <point x="31.4092" y="-158"/>
      <point x="62.3462" y="-163"/>
      <point x="107.283" y="-168"/>
      <point x="128.283" y="-168" type="qcurve" smooth="yes"/>
      <point x="142.283" y="-168"/>
      <point x="160.984" y="-160"/>
      <point x="171.96" y="-146"/>
      <point x="173.661" y="-138" type="qcurve" smooth="yes"/>
      <point x="176.638" y="-124"/>
      <point x="164.252" y="-107"/>
      <point x="145.252" y="-107" type="qcurve" smooth="yes"/>
      <point x="130.252" y="-107"/>
      <point x="85.1888" y="-112"/>
      <point x="53.7636" y="-114" type="qcurve"/>
      <point x="44.055" y="-75" type="line"/>
      <point x="106" y="0" type="line"/>
    </contour>
  </outline>
</glyph>
<glyph name="germandbls" format="1">
  <advance width="515"/>
  <unicode hex="00DF"/>
  <outline>
    <contour>
      <point x="150" y="0" type="line"/>
      <point x="123" y="0"/>
      <point x="67" y="0"/>
      <point x="40" y="0" type="qcurve"/>
      <point x="153.93" y="536" type="line" smooth="yes"/>
      <point x="166.259" y="594"/>
      <point x="228.35" y="665"/>
      <point x="309.577" y="699"/>
      <point x="349.79" y="700" type="qcurve"/>
      <point x="383.79" y="700"/>
      <point x="442.326" y="679"/>
      <point x="480.824" y="639"/>
      <point x="483.66" y="610" type="qcurve"/>
      <point x="488.07" y="579"/>
      <point x="460.341" y="505"/>
      <point x="426.177" y="476" type="qcurve"/>
      <point x="426.177" y="476"/>
      <point x="416.177" y="476"/>
      <point x="407.177" y="476"/>
      <point x="406.177" y="476" type="qcurve"/>
      <point x="399.477" y="468"/>
      <point x="390.076" y="452"/>
      <point x="388.375" y="444" type="qcurve" smooth="yes"/>
      <point x="383.061" y="419"/>
      <point x="419.433" y="369"/>
      <point x="471.38" y="317"/>
      <point x="490.216" y="288" type="qcurve"/>
      <point x="503.39" y="270"/>
      <point x="520.038" y="226"/>
      <point x="524.623" y="177"/>
      <point x="518.458" y="148" type="qcurve" smooth="yes"/>
      <point x="508.468" y="101"/>
      <point x="445.952" y="28"/>
      <point x="359.449" y="-12"/>
      <point x="310.449" y="-12" type="qcurve" smooth="yes"/>
      <point x="283.449" y="-12"/>
      <point x="235" y="0"/>
      <point x="194.676" y="22"/>
      <point x="178.865" y="37" type="qcurve"/>
      <point x="196.391" y="63"/>
      <point x="230.806" y="112"/>
      <point x="248.12" y="137" type="qcurve"/>
      <point x="261.932" y="122"/>
      <point x="288.893" y="103"/>
      <point x="316.98" y="94"/>
      <point x="329.98" y="94" type="qcurve" smooth="yes"/>
      <point x="345.98" y="94"/>
      <point x="376.956" y="108"/>
      <point x="399.483" y="134"/>
      <point x="403.309" y="152" type="qcurve" smooth="yes"/>
      <point x="406.072" y="165"/>
      <point x="402.236" y="194"/>
      <point x="389.038" y="226"/>
      <point x="376.651" y="243" type="qcurve" smooth="yes"/>
      <point x="361.115" y="264"/>
      <point x="320.255" y="307"/>
      <point x="285.458" y="355"/>
      <point x="267.936" y="409"/>
      <point x="274.312" y="439" type="qcurve" smooth="yes"/>
      <point x="277.713" y="455"/>
      <point x="294.728" y="488"/>
      <point x="309.554" y="506" type="qcurve"/>
      <point x="334.554" y="506"/>
      <point x="367.355" y="538"/>
      <point x="370.969" y="555" type="qcurve" smooth="yes"/>
      <point x="373.307" y="566"/>
      <point x="368.133" y="584"/>
      <point x="351.471" y="595"/>
      <point x="336.471" y="595" type="qcurve" smooth="yes"/>
      <point x="276.471" y="595"/>
      <point x="257.341" y="505" type="qcurve" smooth="yes"/>
    </contour>
  </outline>
</glyph>
<glyph name="divide" format="1">
  <advance width="380"/>
  <unicode hex="00F7"/>
  <outline>
    <contour>
      <point x="101.269" y="340" type="line"/>
      <point x="119.549" y="426" type="line"/>
      <point x="439.549" y="426" type="line"/>
      <point x="421.269" y="340" type="line"/>
    </contour>
    <contour>
      <point x="311.37" y="571" type="qcurve" smooth="yes"/>
      <point x="335.37" y="571"/>
      <point x="363.718" y="535"/>
      <point x="358.829" y="512" type="qcurve" smooth="yes"/>
      <point x="353.515" y="487"/>
      <point x="310.076" y="452"/>
      <point x="286.076" y="452" type="qcurve" smooth="yes"/>
      <point x="261.076" y="452"/>
      <point x="233.515" y="487"/>
      <point x="238.829" y="512" type="qcurve" smooth="yes"/>
      <point x="243.718" y="535"/>
      <point x="286.37" y="571"/>
    </contour>
    <contour>
      <point x="256.53" y="313" type="qcurve" smooth="yes"/>
      <point x="280.53" y="313"/>
      <point x="309.516" y="280"/>
      <point x="304.202" y="255" type="qcurve" smooth="yes"/>
      <point x="298.888" y="230"/>
      <point x="255.449" y="195"/>
      <point x="231.449" y="195" type="qcurve" smooth="yes"/>
      <point x="206.449" y="195"/>
      <point x="178.888" y="230"/>
      <point x="184.202" y="255" type="qcurve" smooth="yes"/>
      <point x="189.516" y="280"/>
      <point x="231.53" y="313"/>
    </contour>
  </outline>
</glyph>
<glyph name="Eng" format="1">
  <advance width="577"/>
  <unicode hex="014A"/>
  <outline>
    <contour>
      <point x="521.459" y="-59" type="line" smooth="yes"/>
      <point x="512.319" y="-102"/>
      <point x="474.841" y="-156"/>
      <point x="450.59" y="-176" type="qcurve"/>
      <point x="424.551" y="-195"/>
      <point x="358.725" y="-213"/>
      <point x="337.725" y="-213" type="qcurve"/>
      <point x="326.643" y="-124" type="line"/>
      <point x="344.493" y="-120"/>
      <point x="370.194" y="-112"/>
      <point x="382.532" y="-101" type="qcurve" smooth="yes"/>
      <point x="393.232" y="-93"/>
      <point x="409.759" y="-67"/>
      <point x="413.797" y="-48" type="qcurve" smooth="yes"/>
      <point x="424" y="0" type="line"/>
      <point x="251.327" y="472" type="line"/>
      <point x="151" y="0" type="line"/>
      <point x="41" y="0" type="line"/>
      <point x="189.364" y="698" type="line"/>
      <point x="300.364" y="698" type="line"/>
      <point x="472.888" y="230" type="line"/>
      <point x="572.364" y="698" type="line"/>
      <point x="682.364" y="698" type="line"/>
    </contour>
  </outline>
</glyph>
<glyph name="eng" format="1">
  <advance width="445"/>
  <unicode hex="014B"/>
  <outline>
    <contour>
      <point x="398.648" y="-44" type="line" smooth="yes"/>
      <point x="389.72" y="-86"/>
      <point x="353.03" y="-141"/>
      <point x="326.991" y="-160" type="qcurve" smooth="yes"/>
      <point x="302.952" y="-179"/>
      <point x="235.914" y="-198"/>
      <point x="214.914" y="-198" type="qcurve"/>
      <point x="203.831" y="-109" type="line"/>
      <point x="221.469" y="-106"/>
      <point x="247.595" y="-96"/>
      <point x="260.72" y="-86" type="qcurve" smooth="yes"/>
      <point x="270.633" y="-77"/>
      <point x="287.16" y="-51"/>
      <point x="290.986" y="-33" type="qcurve" smooth="yes"/>
      <point x="370.907" y="343" type="line" smooth="yes"/>
      <point x="374.945" y="362"/>
      <point x="366.11" y="391"/>
      <point x="340.936" y="409"/>
      <point x="318.936" y="409" type="qcurve" smooth="yes"/>
      <point x="299.936" y="409"/>
      <point x="258.385" y="397"/>
      <point x="230.047" y="386" type="qcurve"/>
      <point x="148" y="0" type="line"/>
      <point x="39" y="0" type="line"/>
      <point x="145.066" y="499" type="line"/>
      <point x="254.066" y="499" type="line"/>
      <point x="249.177" y="476" type="line"/>
      <point x="264.09" y="485"/>
      <point x="325.191" y="509"/>
      <point x="356.191" y="509" type="qcurve" smooth="yes"/>
      <point x="386.191" y="509"/>
      <point x="439.79" y="493"/>
      <point x="478.138" y="457"/>
      <point x="491.535" y="393"/>
      <point x="481.332" y="345" type="qcurve" smooth="yes"/>
    </contour>
  </outline>
</glyph>
<glyph name="dotlessj" format="1">
  <advance width="250"/>
  <unicode hex="0237"/>
    <anchor name="top" x="437.458" y="735"/>
  <outline>
    <contour>
      <point x="183.069" y="-61" type="line" smooth="yes"/>
      <point x="165.64" y="-102"/>
      <point x="117.259" y="-157"/>
      <point x="87.7573" y="-177" type="qcurve" smooth="yes"/>
      <point x="58.6804" y="-196"/>
      <point x="-12.3965" y="-215"/>
      <point x="-32.3965" y="-215" type="qcurve"/>
      <point x="-24.1375" y="-125" type="line"/>
      <point x="-5.4371" y="-121"/>
      <point x="21.3888" y="-112"/>
      <point x="36.6398" y="-102" type="qcurve" smooth="yes"/>
      <point x="62.8665" y="-85"/>
      <point x="77.745" y="-50" type="qcurve" smooth="yes"/>
      <point x="269.04" y="400" type="line"/>
      <point x="202.291" y="410" type="line"/>
      <point x="240.125" y="499" type="line"/>
      <point x="421.125" y="499" type="line"/>
    </contour>
    <contour>
      <point x="437.458" y="735" type="move" name="top"/>
    </contour>
  </outline>
</glyph>
<glyph name="dotaccent" format="1">
  <advance width="266"/>
  <unicode hex="02D9"/>
  <outline>
    <contour>
      <point x="297.519" y="774" type="qcurve" smooth="yes"/>
      <point x="322.519" y="774"/>
      <point x="349.504" y="741"/>
      <point x="344.19" y="716" type="qcurve" smooth="yes"/>
      <point x="338.877" y="691"/>
      <point x="297.437" y="656"/>
      <point x="272.437" y="656" type="qcurve" smooth="yes"/>
      <point x="247.437" y="656"/>
      <point x="219.877" y="691"/>
      <point x="225.19" y="716" type="qcurve" smooth="yes"/>
      <point x="230.504" y="741"/>
      <point x="272.519" y="774"/>
    </contour>
  </outline>
</glyph>
<glyph name="ring" format="1">
  <advance width="266"/>
  <unicode hex="02DA"/>
  <outline>
    <contour>
      <point x="297.519" y="774" type="qcurve" smooth="yes"/>
      <point x="329.519" y="774"/>
      <point x="374.142" y="744"/>
      <point x="394.302" y="693"/>
      <point x="387.5" y="661" type="qcurve" smooth="yes"/>
      <point x="380.911" y="630"/>
      <point x="338.858" y="578"/>
      <point x="281.268" y="547"/>
      <point x="249.268" y="547" type="qcurve" smooth="yes"/>
      <point x="218.268" y="547"/>
      <point x="172.858" y="578"/>
      <point x="152.911" y="630"/>
      <point x="159.5" y="661" type="qcurve" smooth="yes"/>
      <point x="166.302" y="693"/>
      <point x="208.142" y="744"/>
      <point x="266.519" y="774"/>
    </contour>
    <contour>
      <point x="280.089" y="692" type="qcurve" smooth="yes"/>
      <point x="268.089" y="692"/>
      <point x="245.263" y="674"/>
      <point x="242.5" y="661" type="qcurve" smooth="yes"/>
      <point x="239.524" y="647"/>
      <point x="254.698" y="629"/>
      <point x="266.698" y="629" type="qcurve" smooth="yes"/>
      <point x="279.698" y="629"/>
      <point x="301.524" y="647"/>
      <point x="304.5" y="661" type="qcurve" smooth="yes"/>
      <point x="307.263" y="674"/>
      <point x="293.089" y="692"/>
    </contour>
  </outline>
</glyph>
<glyph name="ogonek" format="1">
  <advance width="266"/>
  <unicode hex="02DB"/>
  <outline>
    <contour>
      <point x="186.401" y="16" type="line"/>
      <point x="183.425" y="2" type="line"/>
      <point x="74.8555" y="-123" type="line" smooth="yes"/>
      <point x="67.9425" y="-132"/>
      <point x="65.9039" y="-151"/>
      <point x="79.2035" y="-159"/>
      <point x="92.2663" y="-154" type="qcurve" smooth="yes"/>
      <point x="104.116" y="-150"/>
      <point x="140.667" y="-138"/>
      <point x="177.218" y="-126"/>
      <point x="202.918" y="-118"/>
      <point x="202.918" y="-118" type="qcurve"/>
      <point x="212.614" y="-190" type="line"/>
      <point x="212.614" y="-190"/>
      <point x="184.701" y="-199"/>
      <point x="145.151" y="-211"/>
      <point x="108.812" y="-222"/>
      <point x="100.387" y="-224" type="qcurve" smooth="yes"/>
      <point x="64.2617" y="-234"/>
      <point x="10.4501" y="-219"/>
      <point x="-14.8351" y="-178"/>
      <point x="-6.50682" y="-120"/>
      <point x="19.5075" y="-87" type="qcurve" smooth="yes"/>
      <point x="93.6376" y="3" type="line"/>
      <point x="94.4878" y="7" type="line"/>
    </contour>
  </outline>
</glyph>
<glyph name="tilde" format="1">
  <advance width="266"/>
  <unicode hex="02DC"/>
  <outline>
    <contour>
      <point x="346.49" y="708" type="line"/>
      <point x="413.49" y="708" type="line"/>
      <point x="411.79" y="700" type="line" smooth="yes"/>
      <point x="403.712" y="662"/>
      <point x="350.597" y="605"/>
      <point x="309.597" y="605" type="qcurve" smooth="yes"/>
      <point x="299.597" y="605"/>
      <point x="281.872" y="611"/>
      <point x="273.722" y="615" type="qcurve" smooth="yes"/>
      <point x="270.147" y="617"/>
      <point x="249.336" y="632"/>
      <point x="244.973" y="635" type="qcurve" smooth="yes"/>
      <point x="239.036" y="640"/>
      <point x="226.099" y="645"/>
      <point x="221.099" y="645" type="qcurve" smooth="yes"/>
      <point x="209.099" y="645"/>
      <point x="202.698" y="629"/>
      <point x="200.572" y="619" type="qcurve" smooth="yes"/>
      <point x="198.872" y="611" type="line"/>
      <point x="131.872" y="611" type="line"/>
      <point x="133.572" y="619" type="line" smooth="yes"/>
      <point x="139.737" y="648"/>
      <point x="174.577" y="699"/>
      <point x="206.49" y="708" type="qcurve" smooth="yes"/>
      <point x="224.553" y="713"/>
      <point x="257.915" y="710"/>
      <point x="272.215" y="702" type="qcurve" smooth="yes"/>
      <point x="280.364" y="698"/>
      <point x="290.664" y="690"/>
      <point x="299.389" y="684" type="qcurve" smooth="yes"/>
      <point x="303.751" y="681"/>
      <point x="318.838" y="672"/>
      <point x="324.838" y="672" type="qcurve" smooth="yes"/>
      <point x="335.838" y="672"/>
      <point x="342.877" y="691"/>
      <point x="344.79" y="700" type="qcurve" smooth="yes"/>
    </contour>
  </outline>
</glyph>
<glyph name="hungarumlaut" format="1">
  <advance width="266"/>
  <unicode hex="02DD"/>
  <outline>
    <contour>
      <point x="294.099" y="645" type="qcurve" smooth="yes"/>
      <point x="219.945" y="569" type="line"/>
      <point x="175.945" y="569" type="line"/>
      <point x="230.601" y="685" type="line" smooth="yes"/>
      <point x="239.64" y="704"/>
      <point x="285.529" y="727"/>
      <point x="302.19" y="716" type="qcurve"/>
      <point x="320.065" y="706"/>
      <point x="311.712" y="662"/>
    </contour>
    <contour>
      <point x="407.099" y="645" type="qcurve" smooth="yes"/>
      <point x="331.945" y="569" type="line"/>
      <point x="287.945" y="569" type="line"/>
      <point x="342.601" y="685" type="line" smooth="yes"/>
      <point x="351.852" y="705"/>
      <point x="395.529" y="727"/>
      <point x="414.19" y="716" type="qcurve" smooth="yes"/>
      <point x="432.065" y="706"/>
      <point x="424.712" y="662"/>
    </contour>
  </outline>
</glyph>
<glyph name="Sigma" format="1">
  <advance width="523"/>
  <unicode hex="03A3"/>
  <outline>
    <contour>
      <point x="337.256" y="100" type="line" smooth="yes"/>
      <point x="376.256" y="100"/>
      <point x="426.294" y="119"/>
      <point x="442.883" y="150" type="qcurve"/>
      <point x="514.531" y="106" type="line"/>
      <point x="486.628" y="50"/>
      <point x="407" y="0"/>
      <point x="348" y="0" type="qcurve" smooth="yes"/>
      <point x="25" y="0" type="line"/>
      <point x="331.622" y="384" type="line"/>
      <point x="190.427" y="703" type="line"/>
      <point x="618.427" y="703" type="line"/>
      <point x="559.983" y="588" type="line"/>
      <point x="368.983" y="588" type="line"/>
      <point x="463.047" y="386" type="line"/>
      <point x="233.256" y="100" type="line"/>
    </contour>
  </outline>
</glyph>
<glyph name="Chi" format="1">
  <advance width="627"/>
  <unicode hex="03A7"/>
  <outline>
    <contour>
      <point x="414.051" y="466" type="line"/>
      <point x="603.364" y="698" type="line"/>
      <point x="734.364" y="698" type="line"/>
      <point x="457.308" y="359" type="line"/>
      <point x="603" y="0" type="line"/>
      <point x="461" y="0" type="line"/>
      <point x="361.864" y="244" type="line"/>
      <point x="163" y="0" type="line"/>
      <point x="26" y="0" type="line"/>
      <point x="318.395" y="350" type="line"/>
      <point x="186.364" y="698" type="line"/>
      <point x="316.364" y="698" type="line"/>
    </contour>
  </outline>
</glyph>
<glyph name="Psi" format="1">
  <advance width="592"/>
  <unicode hex="03A8"/>
  <outline>
    <contour>
      <point x="232.612" y="431" type="line" smooth="yes"/>
      <point x="218.158" y="363"/>
      <point x="238.042" y="306"/>
      <point x="285.042" y="306" type="qcurve" smooth="yes"/>
      <point x="303.042" y="306" type="line"/>
      <point x="386.364" y="698" type="line"/>
      <point x="496.364" y="698" type="line"/>
      <point x="413.042" y="306" type="line"/>
      <point x="436.042" y="306" type="line" smooth="yes"/>
      <point x="481.042" y="306"/>
      <point x="528.158" y="363"/>
      <point x="543.037" y="433" type="qcurve" smooth="yes"/>
      <point x="570.669" y="563" type="line" smooth="yes"/>
      <point x="578.321" y="599"/>
      <point x="565.674" y="643"/>
      <point x="547.138" y="664"/>
      <point x="545.35" y="665" type="qcurve"/>
      <point x="653.49" y="708" type="line"/>
      <point x="662.427" y="703"/>
      <point x="679.563" y="666"/>
      <point x="685.321" y="599"/>
      <point x="674.481" y="548" type="qcurve" smooth="yes"/>
      <point x="644.298" y="406" type="line" smooth="yes"/>
      <point x="624.955" y="315"/>
      <point x="512.275" y="213"/>
      <point x="416.275" y="213" type="qcurve" smooth="yes"/>
      <point x="393.275" y="213" type="line"/>
      <point x="348" y="0" type="line"/>
      <point x="238" y="0" type="line"/>
      <point x="283.275" y="213" type="line"/>
      <point x="265.275" y="213" type="line" smooth="yes"/>
      <point x="171.275" y="213"/>
      <point x="98.9553" y="315"/>
      <point x="118.298" y="406" type="qcurve" smooth="yes"/>
      <point x="180.364" y="698" type="line"/>
      <point x="289.364" y="698" type="line"/>
    </contour>
  </outline>
</glyph>
<glyph name="Omegagreek" format="1">
  <advance width="583"/>
  <unicode hex="03A9"/>
    <anchor name="tonos" x="394.579" y="700"/>
  <outline>
    <contour>
      <point x="631.073" y="226" type="line" smooth="yes"/>
      <point x="607.267" y="170"/>
      <point x="563.886" y="115"/>
      <point x="525.935" y="101" type="qcurve"/>
      <point x="574.935" y="101" type="line"/>
      <point x="548" y="0" type="line"/>
      <point x="320" y="0" type="line"/>
      <point x="362.935" y="101" type="line"/>
      <point x="378.935" y="101"/>
      <point x="412.36" y="102"/>
      <point x="431.336" y="109" type="qcurve" smooth="yes"/>
      <point x="453.737" y="117"/>
      <point x="490.89" y="155"/>
      <point x="508.32" y="196" type="qcurve" smooth="yes"/>
      <point x="623.947" y="468" type="line" smooth="yes"/>
      <point x="647.752" y="524"/>
      <point x="626.959" y="588"/>
      <point x="582.959" y="588" type="qcurve" smooth="yes"/>
      <point x="505.959" y="588" type="line" smooth="yes"/>
      <point x="453.959" y="588"/>
      <point x="384.428" y="535"/>
      <point x="355.947" y="468" type="qcurve" smooth="yes"/>
      <point x="239.894" y="195" type="line" smooth="yes"/>
      <point x="224.166" y="158"/>
      <point x="226.737" y="117"/>
      <point x="237.336" y="109" type="qcurve" smooth="yes"/>
      <point x="245.36" y="102"/>
      <point x="279.935" y="101"/>
      <point x="304.935" y="101" type="qcurve"/>
      <point x="262" y="0" type="line"/>
      <point x="34" y="0" type="line"/>
      <point x="94.9351" y="101" type="line"/>
      <point x="141.935" y="101" type="line"/>
      <point x="121.486" y="107"/>
      <point x="118.19" y="151"/>
      <point x="135.571" y="206"/>
      <point x="144.073" y="226" type="qcurve" smooth="yes"/>
      <point x="261.4" y="502" type="line" smooth="yes"/>
      <point x="300.509" y="594"/>
      <point x="442.121" y="706"/>
      <point x="536.121" y="706" type="qcurve" smooth="yes"/>
      <point x="648.121" y="706" type="line" smooth="yes"/>
      <point x="741.121" y="706"/>
      <point x="787.509" y="594"/>
      <point x="748.4" y="502" type="qcurve" smooth="yes"/>
    </contour>
    <contour>
      <point x="394.579" y="700" type="move" name="tonos"/>
    </contour>
  </outline>
</glyph>
<glyph name="alpha" format="1">
  <advance width="442"/>
  <unicode hex="03B1"/>
    <anchor name="tonos" x="336.843" y="545"/>
  <outline>
    <contour>
      <point x="508.09" y="485" type="line"/>
      <point x="498.501" y="454"/>
      <point x="485.085" y="405"/>
      <point x="481.685" y="389" type="qcurve" smooth="yes"/>
      <point x="400.063" y="5" type="line"/>
      <point x="400.063" y="5"/>
      <point x="358.425" y="2"/>
      <point x="294.787" y="-1"/>
      <point x="224.15" y="-4"/>
      <point x="195.15" y="-4" type="qcurve" smooth="yes"/>
      <point x="149.15" y="-4"/>
      <point x="92.1014" y="24"/>
      <point x="65.3041" y="72"/>
      <point x="61.4826" y="134"/>
      <point x="68.9221" y="169" type="qcurve" smooth="yes"/>
      <point x="108.245" y="354" type="line"/>
      <point x="121.573" y="412"/>
      <point x="173.602" y="478"/>
      <point x="243.554" y="506"/>
      <point x="282.554" y="506" type="qcurve" smooth="yes"/>
      <point x="328.554" y="506"/>
      <point x="389.153" y="490"/>
      <point x="400.09" y="485" type="qcurve"/>
      <point x="400.09" y="485"/>
      <point x="408.703" y="502"/>
      <point x="414.404" y="510" type="qcurve"/>
    </contour>
    <contour>
      <point x="178.71" y="168" type="line" smooth="yes"/>
      <point x="168.294" y="119"/>
      <point x="197.705" y="88"/>
      <point x="233.705" y="88" type="qcurve" smooth="yes"/>
      <point x="241.705" y="88"/>
      <point x="259.705" y="88"/>
      <point x="277.918" y="89"/>
      <point x="296.13" y="90"/>
      <point x="306.343" y="91" type="qcurve"/>
      <point x="369.047" y="386" type="line"/>
      <point x="354.747" y="394"/>
      <point x="306.085" y="405"/>
      <point x="289.298" y="406" type="qcurve"/>
      <point x="279.298" y="406"/>
      <point x="249.023" y="400"/>
      <point x="223.134" y="377"/>
      <point x="217.607" y="351" type="qcurve" smooth="yes"/>
    </contour>
    <contour>
      <point x="336.843" y="545" type="move" name="tonos"/>
    </contour>
  </outline>
</glyph>
<glyph name="beta" format="1">
  <advance width="600"/>
  <unicode hex="03B2"/>
  <outline>
    <contour>
      <point x="150.742" y="521" type="line" smooth="yes"/>
      <point x="160.945" y="569"/>
      <point x="219.587" y="652"/>
      <point x="306.215" y="702"/>
      <point x="358.215" y="702" type="qcurve" smooth="yes"/>
      <point x="426.215" y="702"/>
      <point x="483.573" y="619"/>
      <point x="469.756" y="554" type="qcurve" smooth="yes"/>
      <point x="459.979" y="508"/>
      <point x="398.187" y="429"/>
      <point x="349.66" y="403" type="qcurve"/>
      <point x="376.66" y="403" type="line" smooth="yes"/>
      <point x="403.66" y="403"/>
      <point x="445.834" y="385"/>
      <point x="470.182" y="349"/>
      <point x="476.279" y="293"/>
      <point x="468.202" y="255" type="qcurve" smooth="yes"/>
      <point x="445.946" y="155" type="line"/>
      <point x="430.13" y="90"/>
      <point x="362.826" y="18"/>
      <point x="270.662" y="-11"/>
      <point x="213.662" y="-11" type="qcurve" smooth="yes"/>
      <point x="203.662" y="-11"/>
      <point x="182.874" y="-10"/>
      <point x="162.087" y="-9"/>
      <point x="151.3" y="-8" type="qcurve"/>
      <point x="107.938" y="-212" type="line"/>
      <point x="-2.08619" y="-198" type="line"/>
    </contour>
    <contour>
      <point x="267.143" y="537" type="qcurve" smooth="yes"/>
      <point x="239.298" y="406" type="line"/>
      <point x="271.612" y="431" type="line" smooth="yes"/>
      <point x="306.563" y="459"/>
      <point x="354.679" y="516"/>
      <point x="361.481" y="548" type="qcurve" smooth="yes"/>
      <point x="365.732" y="568"/>
      <point x="348.109" y="598"/>
      <point x="329.109" y="598" type="qcurve" smooth="yes"/>
      <point x="313.109" y="598"/>
      <point x="287.495" y="581"/>
      <point x="270.756" y="554"/>
    </contour>
    <contour>
      <point x="172.98" y="94" type="line"/>
      <point x="172.98" y="94"/>
      <point x="185.768" y="93"/>
      <point x="204.555" y="92"/>
      <point x="224.343" y="91"/>
      <point x="231.343" y="91" type="qcurve" smooth="yes"/>
      <point x="259.343" y="91"/>
      <point x="296.681" y="102"/>
      <point x="319.357" y="124"/>
      <point x="331.734" y="154"/>
      <point x="335.772" y="173" type="qcurve" smooth="yes"/>
      <point x="350.226" y="241" type="line" smooth="yes"/>
      <point x="354.265" y="260"/>
      <point x="344.728" y="281"/>
      <point x="322.641" y="290"/>
      <point x="306.641" y="290" type="qcurve" smooth="yes"/>
      <point x="295.641" y="290"/>
      <point x="269.579" y="285"/>
      <point x="257.941" y="282" type="qcurve" smooth="yes"/>
      <point x="245.091" y="278"/>
      <point x="222.39" y="270"/>
      <point x="209.115" y="264"/>
      <point x="209.115" y="264" type="qcurve"/>
    </contour>
  </outline>
</glyph>
<glyph name="gamma" format="1">
  <advance width="515"/>
  <unicode hex="03B3"/>
  <outline>
    <contour>
      <point x="590.051" y="466" type="qcurve"/>
      <point x="570.351" y="458"/>
      <point x="539.1" y="438"/>
      <point x="508.873" y="404"/>
      <point x="491.071" y="372" type="qcurve"/>
      <point x="269.309" y="-55" type="line" smooth="yes"/>
      <point x="252.508" y="-87"/>
      <point x="218.242" y="-140"/>
      <point x="174.74" y="-180"/>
      <point x="116.064" y="-202"/>
      <point x="76.0635" y="-202" type="qcurve"/>
      <point x="63.3434" y="-116" type="line"/>
      <point x="86.3434" y="-116"/>
      <point x="116.894" y="-104"/>
      <point x="142.846" y="-76"/>
      <point x="158.16" y="-51" type="qcurve"/>
      <point x="196.251" y="20" type="line"/>
      <point x="184.439" y="35"/>
      <point x="169.753" y="60"/>
      <point x="160.893" y="103"/>
      <point x="156.608" y="144" type="qcurve" smooth="yes"/>
      <point x="154.647" y="163"/>
      <point x="150.062" y="212"/>
      <point x="145.24" y="274"/>
      <point x="139.395" y="350"/>
      <point x="132.163" y="443"/>
      <point x="128.066" y="499" type="qcurve"/>
      <point x="255.066" y="499" type="line"/>
      <point x="255.066" y="499"/>
      <point x="254.438" y="449"/>
      <point x="254.646" y="370"/>
      <point x="253.516" y="280"/>
      <point x="253.511" y="200"/>
      <point x="253.458" y="148"/>
      <point x="253.246" y="147" type="qcurve"/>
      <point x="254.396" y="143"/>
      <point x="256.758" y="140"/>
      <point x="256.758" y="140" type="qcurve"/>
      <point x="256.758" y="140"/>
      <point x="269.072" y="165"/>
      <point x="289.574" y="205"/>
      <point x="312.989" y="254"/>
      <point x="338.405" y="303"/>
      <point x="359.119" y="344"/>
      <point x="365.67" y="356" type="qcurve" smooth="yes"/>
      <point x="394.361" y="411"/>
      <point x="441.964" y="475"/>
      <point x="501.404" y="510"/>
      <point x="546.529" y="520" type="qcurve"/>
      <point x="572.153" y="490"/>
      <point x="590.051" y="466"/>
    </contour>
  </outline>
</glyph>
<glyph name="eta" format="1">
  <advance width="445"/>
  <unicode hex="03B7"/>
    <anchor name="tonos" x="337.843" y="545"/>
  <outline>
    <contour>
      <point x="370.907" y="343" type="line" smooth="yes"/>
      <point x="374.945" y="362"/>
      <point x="366.11" y="391"/>
      <point x="339.936" y="409"/>
      <point x="318.148" y="410" type="qcurve"/>
      <point x="302.148" y="410"/>
      <point x="257.81" y="399"/>
      <point x="230.047" y="386" type="qcurve"/>
      <point x="148" y="0" type="line"/>
      <point x="39" y="0" type="line"/>
      <point x="145.066" y="499" type="line"/>
      <point x="254.066" y="499" type="line"/>
      <point x="249.177" y="476" type="line"/>
      <point x="264.09" y="485"/>
      <point x="325.191" y="509"/>
      <point x="356.191" y="509" type="qcurve" smooth="yes"/>
      <point x="386.191" y="509"/>
      <point x="438.79" y="493"/>
      <point x="477.138" y="457"/>
      <point x="490.535" y="393"/>
      <point x="480.332" y="345" type="qcurve" smooth="yes"/>
      <point x="362.363" y="-210" type="line"/>
      <point x="258.464" y="-186" type="line"/>
    </contour>
    <contour>
      <point x="337.843" y="545" type="move" name="tonos"/>
    </contour>
  </outline>
</glyph>
<glyph name="xi" format="1">
  <advance width="437"/>
  <unicode hex="03BE"/>
  <outline>
    <contour>
      <point x="495.558" y="586" type="line"/>
      <point x="495.558" y="586"/>
      <point x="463.558" y="586"/>
      <point x="418.558" y="586"/>
      <point x="377.558" y="586"/>
      <point x="368.558" y="586" type="qcurve" smooth="yes"/>
      <point x="349.558" y="586"/>
      <point x="320.094" y="565"/>
      <point x="315.418" y="543" type="qcurve" smooth="yes"/>
      <point x="309.042" y="513"/>
      <point x="324.327" y="472"/>
      <point x="352.588" y="445"/>
      <point x="364.462" y="435" type="qcurve" smooth="yes"/>
      <point x="378.911" y="423"/>
      <point x="418.66" y="403"/>
      <point x="448.322" y="392"/>
      <point x="448.322" y="392" type="qcurve"/>
      <point x="406.98" y="301" type="line"/>
      <point x="373.405" y="303"/>
      <point x="294.255" y="307"/>
      <point x="261.255" y="307" type="qcurve" smooth="yes"/>
      <point x="246.255" y="307"/>
      <point x="219.342" y="298"/>
      <point x="199.666" y="276"/>
      <point x="195.627" y="257" type="qcurve" smooth="yes"/>
      <point x="177.985" y="174" type="line" smooth="yes"/>
      <point x="173.946" y="155"/>
      <point x="174.57" y="125"/>
      <point x="187.893" y="103"/>
      <point x="221.343" y="91"/>
      <point x="249.343" y="91" type="qcurve" smooth="yes"/>
      <point x="271.343" y="91"/>
      <point x="310.555" y="92"/>
      <point x="351.193" y="95"/>
      <point x="396.043" y="99"/>
      <point x="422.681" y="102" type="qcurve"/>
      <point x="355.938" y="-212" type="line"/>
      <point x="245.914" y="-198" type="line"/>
      <point x="286.512" y="-7" type="line"/>
      <point x="277.3" y="-8"/>
      <point x="258.087" y="-9"/>
      <point x="235.874" y="-10"/>
      <point x="220.874" y="-10" type="qcurve" smooth="yes"/>
      <point x="165.874" y="-10"/>
      <point x="84.2511" y="20"/>
      <point x="49.5552" y="92"/>
      <point x="62.9463" y="155" type="qcurve" smooth="yes"/>
      <point x="84.2019" y="255" type="line" smooth="yes"/>
      <point x="92.2791" y="293"/>
      <point x="122.182" y="349"/>
      <point x="162.047" y="386"/>
      <point x="211.873" y="404"/>
      <point x="238.873" y="404" type="qcurve" smooth="yes"/>
      <point x="244.873" y="404"/>
      <point x="263.873" y="404"/>
      <point x="264.873" y="404" type="qcurve"/>
      <point x="233.337" y="425"/>
      <point x="206.964" y="475"/>
      <point x="203.592" y="525"/>
      <point x="206.631" y="544" type="qcurve"/>
      <point x="215.346" y="585"/>
      <point x="261.437" y="656"/>
      <point x="334.79" y="700"/>
      <point x="382.79" y="700" type="qcurve" smooth="yes"/>
      <point x="421.79" y="700"/>
      <point x="494.79" y="700"/>
      <point x="541.79" y="700"/>
      <point x="541.79" y="700" type="qcurve"/>
    </contour>
  </outline>
</glyph>
<glyph name="pi" format="1">
  <advance width="475"/>
  <unicode hex="03C0"/>
  <outline>
    <contour>
      <point x="437.318" y="105" type="line"/>
      <point x="436.13" y="90"/>
      <point x="447.666" y="69"/>
      <point x="458.179" y="62" type="qcurve"/>
      <point x="376.387" y="-17" type="line"/>
      <point x="376.387" y="-17"/>
      <point x="356.512" y="-7"/>
      <point x="331.188" y="15"/>
      <point x="317.478" y="54"/>
      <point x="323.855" y="84" type="qcurve" smooth="yes"/>
      <point x="391.172" y="396" type="line"/>
      <point x="233.172" y="396" type="line"/>
      <point x="149" y="0" type="line"/>
      <point x="39" y="0" type="line"/>
      <point x="145.066" y="499" type="line"/>
      <point x="521.066" y="499" type="line"/>
    </contour>
  </outline>
</glyph>
<glyph name="chi" format="1">
  <advance width="541"/>
  <unicode hex="03C7"/>
  <outline>
    <contour>
      <point x="428.034" y="-61" type="line"/>
      <point x="434.744" y="-100"/>
      <point x="477.242" y="-140"/>
      <point x="511.242" y="-140" type="qcurve"/>
      <point x="443.938" y="-212" type="line"/>
      <point x="403.938" y="-212"/>
      <point x="347.716" y="-166"/>
      <point x="333.131" y="-117" type="qcurve"/>
      <point x="275.555" y="92" type="line"/>
      <point x="61.6385" y="-204" type="line"/>
      <point x="-25.2216" y="-161" type="line"/>
      <point x="244" y="207" type="line"/>
      <point x="158.067" y="499" type="line"/>
      <point x="277.067" y="499" type="line"/>
      <point x="325.806" y="319" type="line"/>
      <point x="457.067" y="499" type="line"/>
      <point x="581.067" y="499" type="line"/>
      <point x="357.362" y="204" type="line"/>
    </contour>
  </outline>
</glyph>
<glyph name="quoteright" format="1">
  <advance width="173"/>
  <unicode hex="2019"/>
  <outline>
    <contour>
      <point x="169.906" y="550" type="line"/>
      <point x="180.882" y="564"/>
      <point x="195.046" y="593"/>
      <point x="201.234" y="608" type="qcurve"/>
      <point x="182.297" y="613"/>
      <point x="163.099" y="645"/>
      <point x="167.35" y="665" type="qcurve" smooth="yes"/>
      <point x="172.451" y="689"/>
      <point x="215.104" y="725"/>
      <point x="240.104" y="725" type="qcurve" smooth="yes"/>
      <point x="265.104" y="725"/>
      <point x="291.451" y="689"/>
      <point x="286.35" y="665" type="qcurve" smooth="yes"/>
      <point x="279.123" y="631"/>
      <point x="248.495" y="581"/>
      <point x="214.481" y="548"/>
      <point x="191.08" y="532"/>
      <point x="191.08" y="532" type="qcurve"/>
    </contour>
  </outline>
</glyph>
<glyph name="y_lower_alt" format="1">
  <advance width="549"/>
  <unicode hex="9998"/>
  <outline>
    <contour>
      <point x="85.1264" y="-197" type="line"/>
      <point x="209" y="0" type="line"/>
      <point x="126.066" y="499" type="line"/>
      <point x="248.066" y="499" type="line"/>
      <point x="303.458" y="148" type="line"/>
      <point x="513.066" y="499" type="line"/>
      <point x="631.066" y="499" type="line"/>
      <point x="207.126" y="-197" type="line"/>
    </contour>
  </outline>
</glyph>
<glyph name="fl" format="1">
  <advance width="419"/>
  <unicode hex="FB02"/>
  <outline>
    <contour>
      <point x="391.833" y="592" type="line"/>
      <point x="385.747" y="601"/>
      <point x="363.447" y="609"/>
      <point x="349.447" y="609" type="qcurve" smooth="yes"/>
      <point x="333.447" y="609"/>
      <point x="299.896" y="597"/>
      <point x="273.157" y="570"/>
      <point x="268.481" y="548" type="qcurve" smooth="yes"/>
      <point x="258.066" y="499" type="line"/>
      <point x="345.066" y="499" type="line"/>
      <point x="299.172" y="396" type="line"/>
      <point x="236.172" y="396" type="line"/>
      <point x="152" y="0" type="line"/>
      <point x="39" y="0" type="line"/>
      <point x="148.679" y="516" type="line" smooth="yes"/>
      <point x="157.394" y="557"/>
      <point x="194.273" y="627"/>
      <point x="251.326" y="679"/>
      <point x="330.49" y="708"/>
      <point x="381.49" y="708" type="qcurve" smooth="yes"/>
      <point x="414.49" y="708"/>
      <point x="480.152" y="697"/>
      <point x="521.601" y="685" type="qcurve"/>
      <point x="376" y="0" type="line"/>
      <point x="266" y="0" type="line"/>
    </contour>
  </outline>
</glyph>
<glyph name="ffl" format="1">
  <advance width="649"/>
  <unicode hex="FB04"/>
  <outline>
    <contour>
      <point x="744.817" y="590" type="line"/>
      <point x="735.092" y="593"/>
      <point x="716.367" y="596"/>
      <point x="706.367" y="596" type="qcurve" smooth="yes"/>
      <point x="678.367" y="596"/>
      <point x="623.764" y="564"/>
      <point x="610.16" y="532" type="qcurve" smooth="yes"/>
      <point x="596.131" y="499" type="line"/>
      <point x="685.131" y="499" type="line"/>
      <point x="617.345" y="396" type="line"/>
      <point x="552.345" y="396" type="line"/>
      <point x="384" y="0" type="line"/>
      <point x="269" y="0" type="line"/>
      <point x="477.581" y="493" type="line"/>
      <point x="491.759" y="524"/>
      <point x="507.938" y="555"/>
      <point x="521.59" y="573"/>
      <point x="527.416" y="582" type="qcurve"/>
      <point x="522.967" y="588"/>
      <point x="501.367" y="596"/>
      <point x="484.367" y="596" type="qcurve" smooth="yes"/>
      <point x="465.367" y="596"/>
      <point x="421.991" y="581"/>
      <point x="384.812" y="550"/>
      <point x="374.61" y="526" type="qcurve" smooth="yes"/>
      <point x="363.131" y="499" type="line"/>
      <point x="450.131" y="499" type="line"/>
      <point x="382.345" y="396" type="line"/>
      <point x="319.345" y="396" type="line"/>
      <point x="151" y="0" type="line"/>
      <point x="39" y="0" type="line"/>
      <point x="266.861" y="536" type="line" smooth="yes"/>
      <point x="274.938" y="555"/>
      <point x="314.744" y="611"/>
      <point x="378.125" y="666"/>
      <point x="468.855" y="703"/>
      <point x="526.855" y="703" type="qcurve" smooth="yes"/>
      <point x="552.855" y="703"/>
      <point x="610.029" y="694"/>
      <point x="640.202" y="685" type="qcurve"/>
      <point x="669.304" y="697"/>
      <point x="726.705" y="705"/>
      <point x="760.705" y="705" type="qcurve"/>
      <point x="791.28" y="704"/>
      <point x="859.029" y="694"/>
      <point x="897.203" y="685" type="qcurve"/>
      <point x="606" y="0" type="line"/>
      <point x="494" y="0" type="line"/>
    </contour>
  </outline>
</glyph>
<glyph name="commaturnedabovecomb" format="1">
  <advance width="266"/>
    <anchor name="top" x="292.417" y="750"/>
    <anchor name="_top" x="260.534" y="600"/>
    <anchor name="top.1" x="292.417" y="750"/>
    <anchor name="_top.1" x="260.534" y="600"/>
  <outline>
    <contour>
      <point x="319.348" y="726" type="line"/>
      <point x="309.584" y="713"/>
      <point x="294.781" y="681"/>
      <point x="290.804" y="667" type="qcurve"/>
      <point x="307.954" y="663"/>
      <point x="326.938" y="630"/>
      <point x="322.473" y="609" type="qcurve" smooth="yes"/>
      <point x="317.158" y="584"/>
      <point x="274.93" y="550"/>
      <point x="249.93" y="550" type="qcurve" smooth="yes"/>
      <point x="224.93" y="550"/>
      <point x="197.158" y="584"/>
      <point x="202.473" y="609" type="qcurve" smooth="yes"/>
      <point x="209.702" y="643"/>
      <point x="240.332" y="693"/>
      <point x="274.135" y="725"/>
      <point x="297.537" y="741"/>
      <point x="297.537" y="741" type="qcurve"/>
    </contour>
    <contour>
      <point x="292.417" y="750" type="move" name="top"/>
    </contour>
    <contour>
      <point x="260.534" y="600" type="move" name="_top"/>
    </contour>
    <contour>
      <point x="292.417" y="750" type="move" name="top.1"/>
    </contour>
    <contour>
      <point x="260.534" y="600" type="move" name="_top.1"/>
    </contour>
  </outline>
</glyph>
